<?xml version="1.0" standalone="no"?>
<!DOCTYPE svg PUBLIC "-//W3C//DTD SVG 20010904//EN"
 "http://www.w3.org/TR/2001/REC-SVG-20010904/DTD/svg10.dtd">
<svg version="1.0" xmlns="http://www.w3.org/2000/svg"
 width="608.000000pt" height="608.000000pt" viewBox="0 0 608.000000 608.000000"
 preserveAspectRatio="xMidYMid meet">
<metadata>
Created by potrace 1.11, written by Peter Selinger 2001-2013
</metadata>
<g transform="translate(0.000000,608.000000) scale(0.100000,-0.100000)"
fill="#000000" stroke="none">
<path d="M1525 5475 c-230 -50 -470 -238 -704 -552 -355 -476 -622 -1164 -718
-1853 -22 -158 -25 -629 -5 -760 51 -332 174 -573 344 -673 28 -16 672 -221
1659 -528 l1614 -501 110 4 c95 4 121 9 190 37 280 113 580 431 829 879 114
204 246 515 320 756 42 134 44 138 59 115 25 -40 36 -97 47 -254 21 -292 47
-341 185 -353 58 -4 65 -7 65 -26 1 -33 37 -106 53 -106 12 0 11 7 -4 37 -24
47 -24 106 1 161 10 23 15 42 10 42 -14 0 -50 -51 -50 -73 0 -18 -5 -19 -65
-15 -115 7 -151 55 -166 220 -5 57 -14 150 -19 207 -7 74 -17 120 -36 161
l-26 59 30 128 c17 70 36 157 43 192 12 63 12 63 29 41 11 -15 23 -21 34 -17
11 4 22 -6 40 -36 34 -59 44 -100 66 -288 11 -91 27 -188 35 -216 19 -63 66
-107 122 -116 38 -6 41 -9 46 -47 6 -49 31 -90 54 -90 14 0 14 2 -3 21 -29 32
-32 138 -5 184 19 32 19 36 4 33 -9 -2 -26 -22 -38 -46 -18 -40 -23 -43 -49
-37 -97 18 -120 71 -151 348 -17 150 -40 238 -74 286 -14 19 -20 38 -16 50 5
16 -1 20 -35 26 -22 4 -40 8 -40 9 0 1 7 47 15 102 8 54 19 169 26 254 6 85
12 156 14 158 7 7 151 -41 161 -54 6 -8 21 -14 33 -14 11 0 21 -5 21 -10 0 -6
17 -10 38 -8 41 2 162 -30 162 -43 0 -5 14 -9 30 -9 17 0 30 4 30 8 0 16 -24
32 -48 32 -13 0 -55 9 -93 21 -49 15 -69 26 -69 37 0 28 61 202 71 202 5 0 9
14 9 30 0 17 -4 30 -10 30 -11 0 -35 -41 -32 -54 5 -16 -62 -196 -73 -196 -14
0 -129 100 -133 115 -3 13 -42 28 -51 20 -8 -8 19 -56 28 -51 5 3 31 -15 58
-40 28 -27 40 -43 28 -39 -11 3 -52 16 -91 27 l-71 21 -7 126 c-8 151 -30 307
-57 415 -62 243 -188 432 -334 503 -47 22 -3114 979 -3235 1009 -67 17 -126
17 -205 -1z"/>
<path d="M5740 3730 c-11 -21 3 -29 15 -10 5 8 11 7 21 -1 19 -16 30 -4 14 16
-17 21 -37 19 -50 -5z"/>
<path d="M5724 3675 c-9 -14 -13 -32 -9 -45 5 -16 15 -20 50 -20 35 0 43 -3
39 -15 -4 -9 0 -15 9 -15 8 0 17 9 20 20 3 11 12 20 21 20 9 0 16 5 16 10 0
14 -83 13 -97 -1 -6 -6 -16 -8 -22 -5 -17 11 -13 26 7 26 21 0 42 18 42 37 0
24 -58 15 -76 -12z m38 -7 c-7 -7 -12 -8 -12 -2 0 14 12 26 19 19 2 -3 -1 -11
-7 -17z"/>
<path d="M5420 3655 c-16 -19 -6 -32 13 -17 10 9 17 8 26 -1 10 -10 12 -8 9 8
-4 25 -31 31 -48 10z"/>
<path d="M5400 3599 c-19 -34 -9 -64 23 -67 16 -2 34 2 42 8 11 9 13 7 9 -7
-2 -10 0 -25 6 -33 20 -32 78 39 65 80 -8 25 -29 26 -52 1 -17 -17 -55 -41
-67 -41 -3 0 -6 7 -6 15 0 8 8 15 19 15 22 0 45 25 36 40 -11 18 -63 12 -75
-11z m50 1 c0 -5 -5 -10 -11 -10 -5 0 -7 5 -4 10 3 6 8 10 11 10 2 0 4 -4 4
-10z"/>
<path d="M5880 3355 c-16 -19 -6 -32 13 -17 10 9 17 8 26 -1 10 -10 12 -8 9 8
-4 25 -31 31 -48 10z"/>
<path d="M5861 3306 c-7 -8 -11 -27 -9 -43 2 -22 9 -29 32 -31 29 -4 55 12 43
25 -4 4 -13 1 -19 -5 -16 -16 -28 -15 -28 2 0 8 11 17 25 20 37 9 34 46 -4 46
-16 0 -34 -6 -40 -14z m49 -5 c0 -5 -7 -11 -14 -14 -10 -4 -13 -1 -9 9 6 15
23 19 23 5z"/>
<path d="M5940 3250 c0 -5 6 -10 13 -10 6 0 4 -5 -5 -11 -29 -16 -21 -31 15
-27 17 2 30 8 29 13 -2 6 -9 9 -15 7 -6 -2 -3 6 7 17 19 21 19 21 -12 21 -18
0 -32 -4 -32 -10z"/>
<path d="M5951 2213 c26 -50 25 -128 -1 -171 -19 -31 -19 -33 -3 -30 26 5 53
65 53 118 0 50 -28 113 -53 118 -13 3 -13 -3 4 -35z"/>
<path d="M5746 2224 c-20 -20 -21 -68 -1 -84 8 -7 28 -10 45 -8 27 4 30 2 24
-16 -4 -12 -11 -27 -16 -33 -15 -19 -39 -16 -36 5 2 11 -4 18 -19 20 -15 2
-23 -2 -23 -11 0 -24 27 -38 67 -35 30 2 42 10 58 35 12 20 28 32 41 33 29 0
38 27 19 56 -8 13 -15 30 -15 39 0 22 -122 22 -144 -1z m88 -3 c4 -5 2 -20 -3
-33 l-10 -23 0 23 c-1 31 -21 28 -21 -3 0 -41 -49 -43 -50 -2 0 28 70 61 84
38z m46 -41 c0 -5 -5 -10 -11 -10 -5 0 -7 5 -4 10 3 6 8 10 11 10 2 0 4 -4 4
-10z"/>
<path d="M5821 1863 c26 -50 25 -128 -1 -171 -19 -31 -19 -33 -3 -30 26 5 53
65 53 118 0 50 -28 113 -53 118 -13 3 -13 -3 4 -35z"/>
<path d="M5589 1869 c-16 -31 3 -69 35 -69 23 0 25 -4 23 -42 l-2 -43 62 -2
c53 -2 64 0 73 17 8 16 8 20 -4 20 -7 0 -17 -7 -20 -16 -19 -49 -13 31 9 134
4 17 1 22 -14 22 -16 0 -22 -11 -31 -57 -7 -32 -19 -69 -27 -83 l-14 -25 6 30
c17 91 17 102 0 118 -24 25 -82 22 -96 -4z m71 -10 c0 -5 -4 -9 -10 -9 -5 0
-10 -7 -10 -15 0 -20 -19 -19 -26 0 -8 20 13 45 32 38 8 -3 14 -9 14 -14z"/>
</g>
</svg>
