<?xml version="1.0" standalone="no"?>
<!DOCTYPE svg PUBLIC "-//W3C//DTD SVG 20010904//EN"
 "http://www.w3.org/TR/2001/REC-SVG-20010904/DTD/svg10.dtd">
<svg version="1.0" xmlns="http://www.w3.org/2000/svg"
 width="256.000000pt" height="256.000000pt" viewBox="0 0 256.000000 256.000000"
 preserveAspectRatio="xMidYMid meet">
<metadata>
Created by potrace 1.14, written by Peter Selinger 2001-2017
</metadata>
<g transform="translate(0.000000,256.000000) scale(0.100000,-0.100000)"
fill="#000000" stroke="none">
<path d="M104 2544 c3 -9 6 -18 6 -20 0 -3 5 -2 10 1 16 10 12 35 -6 35 -11 0
-14 -5 -10 -16z"/>
<path d="M168 2553 c7 -3 16 -2 19 1 4 3 -2 6 -13 5 -11 0 -14 -3 -6 -6z"/>
<path d="M210 2551 c0 -5 -15 -15 -34 -21 -40 -13 -52 -46 -41 -115 7 -52 27
-60 68 -31 19 14 27 29 27 50 0 71 17 83 138 103 64 10 30 23 -63 23 -52 0
-95 -4 -95 -9z"/>
<path d="M417 2540 c3 -11 20 -24 39 -30 27 -9 39 -23 58 -63 14 -29 17 -41 8
-28 -56 77 -92 93 -92 38 0 -18 -10 -51 -21 -72 -12 -22 -21 -55 -20 -72 1
-30 -17 -80 -41 -110 -14 -17 -50 2 -116 62 l-52 47 -10 -29 c-6 -15 -15 -39
-19 -53 -5 -14 -11 -59 -14 -100 -3 -41 -1 -64 3 -50 5 17 7 6 7 -36 0 -58 -1
-60 -23 -56 -29 5 -74 -38 -74 -71 0 -13 -11 -41 -25 -61 -21 -31 -25 -49 -25
-108 0 -58 3 -69 15 -64 11 4 18 -6 27 -38 14 -51 43 -75 65 -53 8 7 17 40 20
73 8 77 18 97 46 88 34 -11 145 -78 151 -91 3 -6 0 -28 -5 -48 -8 -28 -14 -35
-28 -30 -31 10 -66 -11 -80 -48 -14 -34 -16 -35 -66 -35 -71 1 -89 -7 -107
-46 -19 -39 -12 -88 18 -130 26 -35 51 -40 107 -21 47 16 48 16 67 -7 11 -13
19 -27 20 -32 0 -5 7 -17 16 -27 22 -25 9 -57 -32 -76 -33 -16 -36 -16 -79 5
-62 30 -98 29 -124 -4 -22 -28 -28 -69 -11 -79 6 -3 10 -23 10 -43 0 -51 16
-102 37 -118 35 -26 51 -16 85 52 38 77 64 95 103 70 14 -9 25 -24 25 -34 0
-10 5 -23 11 -29 9 -9 2 -24 -25 -62 -28 -38 -45 -52 -72 -57 -33 -6 -34 -8
-34 -51 0 -24 -5 -53 -11 -64 -15 -29 11 -64 58 -79 21 -7 43 -17 50 -22 13
-10 29 25 18 42 -3 5 1 23 10 40 11 21 23 30 40 30 29 0 63 30 69 62 3 13 7
50 9 82 5 68 24 92 85 101 20 3 49 9 64 14 17 6 30 6 34 0 10 -17 51 -9 77 15
18 17 28 21 36 13 8 -8 11 -3 11 17 0 15 -4 25 -10 21 -6 -3 -10 -2 -10 4 0
19 49 24 97 10 l46 -13 28 34 29 34 67 -13 c81 -16 99 -24 114 -54 17 -30 21
-127 7 -127 -6 0 -19 -7 -28 -15 -9 -8 -34 -21 -56 -28 -24 -9 -39 -20 -39
-31 0 -9 -11 -22 -25 -29 -33 -16 -36 -51 -11 -111 24 -55 35 -67 80 -90 36
-19 55 -11 65 27 6 25 46 32 46 9 0 -24 24 -6 52 39 14 24 27 47 27 51 2 13
-33 -4 -49 -24 -15 -18 -16 -18 -16 2 0 11 3 20 7 20 19 0 69 54 69 74 0 28
39 66 68 66 27 0 62 33 62 60 0 11 5 20 11 20 7 0 9 11 5 30 -7 39 8 46 74 30
46 -11 51 -15 60 -50 7 -24 7 -47 1 -63 -17 -44 12 -107 49 -107 9 0 36 9 60
21 83 40 150 19 150 -47 0 -12 6 -27 13 -31 8 -4 20 -21 28 -38 21 -44 63 -47
87 -6 9 17 20 31 25 31 4 0 7 7 7 16 0 14 3 14 15 4 10 -8 15 -9 15 -2 0 6 20
-2 44 -18 24 -17 47 -30 50 -30 4 0 19 9 34 20 35 26 116 50 169 50 48 0 60
11 37 34 -19 20 -35 20 -60 1 -13 -10 -42 -14 -89 -14 -70 1 -70 1 -25 11 97
20 120 29 120 44 0 13 -3 13 -22 0 -36 -26 -46 -20 -41 23 5 43 3 46 -47 55
l-35 7 23 -20 c12 -10 22 -22 22 -25 0 -13 -21 -5 -37 14 -10 11 -24 20 -31
20 -10 0 -9 -4 3 -16 24 -25 8 -31 -18 -6 -12 11 -34 23 -48 27 -24 6 -26 4
-22 -19 6 -31 18 -41 69 -61 l39 -15 -39 4 c-31 4 -50 16 -96 66 -34 34 -67
60 -78 60 -11 0 -27 3 -36 6 -35 13 -13 -14 24 -31 26 -12 48 -32 65 -60 26
-46 63 -74 110 -86 30 -7 30 -7 -7 -8 -32 -1 -43 6 -80 45 -24 25 -46 54 -50
65 -4 11 -16 22 -25 25 -10 3 -26 10 -35 15 -10 5 -22 9 -27 9 -16 0 -4 -50
15 -65 11 -8 14 -15 9 -15 -6 0 -31 20 -55 45 -24 25 -50 45 -57 45 -8 0 -18
11 -23 25 -5 13 -24 32 -42 41 -18 9 -36 22 -40 27 -3 6 13 33 37 59 29 32 45
60 47 81 3 30 6 32 48 38 61 8 116 30 173 69 l48 32 63 -66 c57 -60 66 -66
103 -66 55 0 71 7 88 41 19 37 19 96 -1 134 -9 17 -25 59 -36 95 -27 88 -32
93 -89 85 -90 -13 -121 20 -38 40 58 14 74 50 41 95 -15 20 -22 44 -22 74 0
45 -1 46 -51 71 -28 14 -49 31 -47 37 12 34 145 31 178 -4 15 -16 22 -18 39
-9 27 15 27 29 -1 33 -16 2 -26 14 -33 38 -6 19 -16 45 -23 57 -6 12 -12 26
-12 31 0 5 33 43 73 85 72 75 111 97 177 97 51 0 65 10 80 58 14 42 18 47 48
50 l34 3 -34 -30 c-18 -17 -27 -31 -20 -31 6 0 12 4 12 8 0 5 18 17 40 27 l40
18 0 93 c0 84 -2 93 -17 88 -17 -5 -17 -5 0 9 17 15 23 37 9 37 -4 0 -14 -6
-21 -12 -11 -10 -13 -10 -7 0 16 27 -30 10 -49 -18 -16 -25 -25 -29 -45 -25
-27 7 -52 33 -44 46 3 5 -92 9 -210 9 -202 0 -216 -1 -216 -18 0 -13 12 -21
42 -28 54 -11 58 -29 21 -85 -26 -40 -28 -50 -28 -142 0 -82 -3 -102 -17 -110
-23 -15 -51 10 -45 40 4 20 0 23 -27 23 -51 0 -74 -24 -97 -101 -12 -38 -19
-78 -16 -89 8 -30 -15 -51 -61 -57 -53 -7 -92 -42 -92 -82 0 -16 -4 -33 -10
-36 -12 -7 -13 -75 -2 -91 4 -6 22 -16 39 -22 18 -6 38 -15 45 -21 7 -6 25
-21 40 -33 l27 -23 -9 -120 c-6 -66 -12 -128 -14 -137 -3 -12 2 -18 15 -18 29
0 25 -51 -6 -80 -19 -18 -37 -24 -77 -25 -29 0 -64 2 -78 6 l-25 7 25 10 25
11 -27 0 c-28 1 -88 45 -88 65 0 22 -40 13 -41 -9 0 -13 -4 -9 -12 14 -9 25
-21 37 -44 45 -18 6 -38 17 -45 24 -8 9 1 7 25 -4 27 -13 40 -15 48 -7 8 8 1
14 -26 23 -28 9 -37 18 -42 41 -3 16 -9 32 -14 35 -5 3 -2 21 6 41 19 45 19
72 0 79 -8 3 -24 21 -35 38 -16 28 -24 32 -50 28 -22 -3 -30 0 -30 11 0 9 -7
13 -17 11 -11 -3 -32 8 -52 26 -19 18 -43 36 -55 41 -40 18 -67 36 -79 52 -7
9 -24 19 -39 22 -21 5 -30 2 -43 -18 -9 -15 -15 -40 -13 -59 2 -27 10 -36 41
-51 67 -31 76 -93 34 -213 -13 -34 -13 -45 -1 -72 16 -39 28 -42 20 -4 -5 20
-4 23 4 12 5 -8 10 -23 10 -32 0 -40 64 -63 109 -39 10 6 51 11 92 13 l74 3 8
-50 c20 -139 20 -200 -2 -243 -11 -23 -21 -50 -21 -62 0 -16 -6 -20 -33 -20
-20 0 -39 8 -49 20 -9 10 -55 31 -102 45 -74 23 -87 30 -105 61 -12 19 -21 40
-21 46 0 7 -9 30 -19 52 -11 23 -22 72 -26 109 -7 73 -28 107 -64 107 -32 0
-90 29 -101 51 -7 11 -18 43 -26 70 l-15 49 -44 0 -45 0 -2 -87 c-6 -224 -10
-205 52 -232 17 -7 18 -9 4 -6 -15 4 -24 -1 -32 -20 -16 -34 -15 -40 4 -59 17
-18 90 -21 114 -6 12 8 8 16 -24 45 -38 35 -35 46 7 23 12 -7 42 -19 67 -28
33 -11 47 -22 54 -42 13 -36 -13 -57 -69 -57 l-40 0 31 13 c17 8 34 22 38 31
5 14 3 16 -11 10 -10 -5 -46 -10 -80 -13 -49 -3 -69 0 -90 14 l-28 18 16 -24
c14 -21 14 -25 -8 -46 -13 -13 -23 -35 -23 -49 0 -20 -5 -25 -25 -25 -15 0
-40 7 -58 16 -42 21 -137 123 -130 140 3 8 10 11 15 8 6 -4 7 2 3 17 -11 36
-25 47 -25 19 0 -20 -2 -22 -10 -10 -14 22 -12 56 5 70 12 10 13 16 4 26 -9
11 -3 23 25 54 20 22 36 46 36 53 0 6 6 24 14 39 8 14 17 45 21 67 4 23 11 43
16 47 15 9 10 40 -10 58 -15 14 -24 15 -40 7 -28 -16 -66 -14 -81 4 -7 8 -18
15 -25 15 -14 0 -111 72 -131 97 -8 9 -21 12 -38 7 -25 -6 -27 -5 -23 27 2 20
16 47 33 65 42 45 84 105 84 120 0 8 13 20 30 29 33 17 80 20 80 5 0 -5 5 -10
10 -10 12 0 130 -81 130 -89 1 -4 3 -44 5 -91 4 -82 25 -160 45 -160 5 0 22
16 37 35 21 27 36 35 59 35 28 0 33 5 49 47 10 26 19 65 20 88 0 22 4 46 8 52
9 15 71 33 114 33 18 0 43 10 60 23 37 31 70 39 88 21 7 -8 33 -23 57 -34 100
-47 121 -65 138 -122 18 -61 46 -74 83 -40 12 11 49 29 82 42 33 12 75 31 93
42 22 14 42 18 62 15 37 -8 43 10 42 124 l0 86 41 32 c23 17 58 34 79 37 51 9
61 23 53 78 -5 32 -13 47 -26 51 -11 4 -17 10 -14 15 3 5 -1 11 -7 13 -7 3 -3
6 9 6 31 1 19 27 -15 36 -45 11 -55 25 -36 46 16 17 16 19 1 19 -19 0 -87 -31
-87 -39 0 -3 17 -16 38 -28 20 -12 32 -22 26 -23 -20 0 -79 46 -77 61 2 11 -7
15 -35 16 -20 0 -61 4 -89 8 -35 5 -53 4 -53 -3 0 -6 -3 -17 -6 -26 -4 -11 0
-16 12 -17 16 0 15 -2 -4 -12 -16 -7 -22 -17 -18 -30 3 -12 -3 -31 -15 -45
-10 -14 -19 -34 -19 -45 0 -11 -15 -37 -32 -57 -18 -21 -50 -59 -71 -84 -49
-58 -88 -80 -130 -70 -18 3 -37 11 -44 16 -7 6 -14 5 -18 -2 -12 -20 -25 -10
-25 20 0 41 -19 80 -55 115 -36 34 -91 190 -80 225 6 18 2 20 -49 20 -49 0
-56 -3 -56 -19 0 -22 -54 -107 -71 -113 -6 -2 6 -30 25 -63 20 -32 36 -62 36
-66 0 -22 -22 -59 -40 -69 -30 -16 -37 -5 -14 21 14 16 15 21 4 17 -20 -7 -50
39 -50 77 0 23 -3 27 -10 15 -5 -8 -10 -26 -10 -40 0 -23 -1 -22 -18 9 -9 19
-38 49 -64 65 -40 26 -47 36 -47 64 -1 27 4 34 27 42 15 6 34 14 42 19 21 12
25 41 6 41 -9 0 -16 -6 -16 -14 0 -15 -21 -26 -51 -26 -12 0 -19 7 -19 20 0
23 -25 27 -34 5 -3 -9 -18 -15 -36 -15 -18 0 -33 6 -36 15 -9 22 -23 18 -17
-5z m1106 -37 c-7 -2 -21 -2 -30 0 -10 3 -4 5 12 5 17 0 24 -2 18 -5z m87 -28
c43 -32 27 -32 -25 0 -22 14 -33 25 -24 25 8 0 30 -11 49 -25z m-1003 -112
c29 -22 98 -134 73 -118 -5 3 -20 25 -31 48 -12 22 -33 50 -47 62 -14 11 -33
26 -41 33 -25 22 8 3 46 -25z m1662 -12 c-6 -18 -13 -30 -15 -28 -2 2 1 18 7
36 6 18 13 30 15 28 2 -2 -1 -18 -7 -36z m-740 -2 c6 -18 11 -46 11 -63 -1
-27 -3 -23 -20 24 -22 63 -23 70 -11 70 5 0 14 -14 20 -31z m853 -1 c-6 -6
-15 -8 -19 -4 -4 4 -1 11 7 16 19 12 27 3 12 -12z m-1907 -19 c7 -22 -10 -49
-31 -49 -14 0 -21 60 -8 73 10 10 33 -4 39 -24z m1772 -41 c-3 -8 -6 -5 -6 6
-1 11 2 17 5 13 3 -3 4 -12 1 -19z m-694 -83 c5 -28 4 -34 -3 -20 -8 19 -14
73 -6 64 2 -2 6 -22 9 -44z m27 -115 c0 -16 -4 -30 -8 -30 -5 0 -7 14 -4 30 2
17 6 30 8 30 2 0 4 -13 4 -30z m-1542 -325 c-3 -3 -9 2 -12 12 -6 14 -5 15 5
6 7 -7 10 -15 7 -18z m32 -98 c0 -10 -4 -15 -10 -12 -5 3 -10 18 -10 33 0 21
2 24 10 12 5 -8 10 -23 10 -33z m1113 -136 c-8 -11 -12 10 -13 74 -2 99 2 104
10 10 3 -44 4 -82 3 -84z m37 34 c0 -8 -2 -15 -4 -15 -2 0 -6 7 -10 15 -3 8
-1 15 4 15 6 0 10 -7 10 -15z m810 -68 c0 -18 -21 -37 -41 -37 -30 0 -31 18
-2 33 36 19 43 20 43 4z m55 -37 c-3 -5 -12 -10 -18 -10 -7 0 -6 4 3 10 19 12
23 12 15 0z m-585 -120 c6 -11 8 -20 6 -20 -3 0 -10 9 -16 20 -6 11 -8 20 -6
20 3 0 10 -9 16 -20z m30 5 c11 -13 10 -14 -4 -9 -9 3 -16 10 -16 15 0 13 6
11 20 -6z m-1025 -225 c0 -8 -8 -16 -17 -18 -13 -2 -18 3 -18 18 0 15 5 20 18
18 9 -2 17 -10 17 -18z m1335 -190 l35 -30 -40 25 c-47 31 -51 35 -39 35 5 0
25 -14 44 -30z m74 -86 c3 -8 2 -12 -4 -9 -6 3 -10 10 -10 16 0 14 7 11 14 -7z"/>
<path d="M448 2553 c6 -2 18 -2 25 0 6 3 1 5 -13 5 -14 0 -19 -2 -12 -5z"/>
<path d="M659 2540 c-3 -17 -17 -32 -44 -46 -46 -23 -58 -57 -28 -79 21 -17
53 -19 53 -5 0 6 -7 10 -15 10 -23 0 -18 17 16 60 20 25 29 46 27 61 l-4 24
-5 -25z"/>
<path d="M1080 2548 c1 -22 34 -57 61 -63 21 -5 31 0 53 25 14 17 26 36 26 41
0 5 -31 9 -70 9 -49 0 -70 -4 -70 -12z"/>
<path d="M1317 2553 c-7 -6 -3 -41 9 -101 7 -34 24 -16 24 26 0 64 -14 95 -33
75z"/>
<path d="M41 2536 c-9 -11 -6 -15 15 -20 31 -8 39 -3 31 19 -8 19 -31 20 -46
1z"/>
<path d="M2405 2530 c3 -5 8 -10 11 -10 2 0 4 5 4 10 0 6 -5 10 -11 10 -5 0
-7 -4 -4 -10z"/>
<path d="M1290 2464 c0 -46 4 -65 17 -75 15 -13 16 -9 9 45 -10 87 -25 105
-26 30z"/>
<path d="M315 2490 c-4 -6 5 -10 20 -10 15 0 24 4 20 10 -3 6 -12 10 -20 10
-8 0 -17 -4 -20 -10z"/>
<path d="M1025 2470 c-16 -18 -16 -18 4 -13 14 3 21 1 22 -8 0 -8 2 -29 3 -46
2 -18 0 -30 -5 -27 -5 3 -9 0 -9 -7 0 -7 -8 -5 -20 6 -14 12 -20 14 -20 5 0
-7 10 -22 23 -34 13 -11 36 -40 51 -63 16 -24 32 -43 37 -43 4 0 20 11 36 24
l28 24 -32 40 c-18 22 -44 65 -59 96 -15 31 -30 58 -34 61 -4 2 -15 -4 -25
-15z"/>
<path d="M1266 2474 c-9 -25 -7 -72 4 -79 6 -4 10 13 10 44 0 53 -4 62 -14 35z"/>
<path d="M1198 2472 c-10 -2 -18 -7 -18 -12 0 -5 -9 -10 -20 -12 -12 -2 -22
-7 -23 -13 -3 -16 42 -18 60 -3 15 12 15 11 4 -9 -7 -13 -21 -23 -34 -23 -19
0 -18 -3 11 -20 35 -22 52 -19 52 8 0 15 2 15 10 2 8 -11 10 -1 8 34 -3 50
-11 57 -50 48z m39 -44 c-3 -8 -6 -5 -6 6 -1 11 2 17 5 13 3 -3 4 -12 1 -19z"/>
<path d="M10 2422 c-6 -2 -10 -47 -10 -113 0 -86 3 -108 12 -102 7 4 19 8 27
10 19 2 39 23 23 23 -18 0 -15 31 6 53 16 19 16 19 -3 16 -12 -3 -25 -18 -32
-39 -10 -29 -12 -31 -11 -10 1 54 13 74 51 85 21 6 38 14 38 18 -1 4 -1 19 -1
35 0 26 -2 28 -45 27 -24 0 -49 -1 -55 -3z"/>
<path d="M1842 2408 c-16 -16 -15 -80 2 -103 12 -16 19 -18 42 -10 17 6 33 21
38 36 11 33 0 79 -19 79 -18 0 -18 -2 -3 -35 10 -21 9 -28 -2 -35 -9 -5 -20
-5 -27 2 -11 8 -12 7 -7 -7 5 -12 4 -16 -3 -12 -6 4 -8 26 -5 52 5 48 3 52
-16 33z"/>
<path d="M718 2332 c-5 -17 12 -52 25 -52 12 0 16 33 4 50 -15 25 -23 25 -29
2z"/>
<path d="M95 2251 c-3 -5 -1 -12 5 -16 5 -3 10 1 10 9 0 18 -6 21 -15 7z"/>
<path d="M1671 2231 c-7 -5 -11 -15 -9 -22 3 -10 8 -7 17 9 13 24 12 26 -8 13z"/>
<path d="M1740 2220 c27 -20 36 -19 27 5 -4 8 -17 15 -29 15 l-23 0 25 -20z"/>
<path d="M1150 2180 c0 -5 4 -10 9 -10 6 0 13 5 16 10 3 6 -1 10 -9 10 -9 0
-16 -4 -16 -10z"/>
<path d="M1647 2177 c-8 -20 1 -115 13 -137 12 -23 56 -26 81 -7 21 16 31 58
18 73 -7 9 -7 19 1 34 11 20 10 21 -9 10 -12 -6 -21 -17 -21 -25 0 -24 -17
-17 -24 9 -6 25 -31 56 -46 56 -4 0 -10 -6 -13 -13z"/>
<path d="M29 2155 c-21 -11 -26 -22 -28 -59 -2 -39 1 -46 17 -46 32 0 84 72
61 86 -6 3 -3 11 8 20 17 12 16 13 -7 13 -14 0 -37 -6 -51 -14z m8 -21 c-3 -3
-12 -4 -19 -1 -8 3 -5 6 6 6 11 1 17 -2 13 -5z"/>
<path d="M2413 2112 c-26 -17 -44 -111 -25 -138 4 -5 21 -16 39 -23 17 -7 33
-21 36 -32 3 -10 12 -19 21 -19 20 0 20 -19 0 -48 -28 -40 -49 -45 -96 -20
-24 13 -61 25 -83 28 -28 4 -43 11 -51 28 -10 20 -12 21 -16 5 -4 -15 5 -121
15 -186 2 -9 20 -34 40 -55 45 -46 73 -125 51 -143 -10 -8 -14 -40 -14 -121
l0 -110 34 -32 c21 -20 35 -44 39 -67 l5 -36 -126 2 c-71 1 -133 -2 -139 -8
-9 -6 -27 -6 -55 1 -23 6 -44 10 -45 8 -2 -1 15 -13 37 -25 l40 -22 26 20 c15
12 34 21 43 21 11 -1 8 -5 -9 -14 -14 -8 -35 -28 -48 -45 l-23 -31 36 -44 c39
-47 76 -61 134 -50 33 7 81 58 81 87 0 34 27 46 93 41 34 -2 72 -6 85 -9 21
-5 22 -3 22 75 l0 80 -34 0 c-19 0 -45 9 -60 21 -24 19 -27 26 -21 63 4 22 16
56 27 74 16 26 19 43 14 78 -3 24 -2 44 3 44 6 0 5 15 0 35 -8 29 -6 48 10 96
12 32 21 68 21 79 0 11 9 28 20 37 18 16 20 30 20 149 l0 132 -25 6 c-14 4
-43 22 -64 41 -42 38 -41 38 -58 27z"/>
<path d="M2276 2060 c-17 -17 -15 -40 3 -40 7 0 31 43 31 55 0 10 -16 3 -34
-15z"/>
<path d="M2320 2024 c0 -14 4 -23 10 -19 6 3 10 15 10 26 0 10 -4 19 -10 19
-5 0 -10 -12 -10 -26z"/>
<path d="M1095 2010 c4 -6 11 -8 16 -5 14 9 11 15 -7 15 -8 0 -12 -5 -9 -10z"/>
<path d="M463 1999 c-13 -5 -23 -13 -23 -19 0 -17 -18 -11 -23 8 -3 9 -5 4 -6
-13 -1 -24 -3 -27 -12 -15 -7 11 -9 4 -6 -26 3 -32 13 -49 43 -78 46 -43 59
-45 71 -8 29 85 4 169 -44 151z m27 -13 c0 -3 -4 -8 -10 -11 -5 -3 -10 -1 -10
4 0 6 5 11 10 11 6 0 10 -2 10 -4z"/>
<path d="M1147 1958 c-17 -39 -18 -43 -2 -54 24 -18 43 -7 50 26 6 28 -8 70
-23 70 -4 0 -15 -19 -25 -42z"/>
<path d="M1545 1960 c3 -5 8 -10 11 -10 2 0 4 5 4 10 0 6 -5 10 -11 10 -5 0
-7 -4 -4 -10z"/>
<path d="M365 1920 c4 -19 12 -39 17 -45 7 -7 8 2 3 25 -4 19 -12 40 -17 45
-7 7 -8 -2 -3 -25z"/>
<path d="M1390 1814 c0 -8 5 -12 10 -9 6 4 8 11 5 16 -9 14 -15 11 -15 -7z"/>
<path d="M862 1798 c7 -19 38 -22 38 -4 0 10 -9 16 -21 16 -12 0 -19 -5 -17
-12z"/>
<path d="M934 1713 c-12 -27 -13 -42 -5 -60 10 -21 9 -22 -8 -11 -15 9 -22 8
-35 -4 -9 -9 -21 -18 -28 -20 -19 -7 18 -58 41 -58 10 0 28 9 41 20 13 11 27
20 32 20 18 0 40 31 48 65 4 20 4 35 -1 35 -5 0 -9 -9 -9 -19 0 -11 -4 -23
-10 -26 -5 -3 -10 3 -10 15 0 11 -7 23 -17 27 -14 5 -13 8 6 15 20 7 21 10 7
23 -23 23 -36 18 -52 -22z"/>
<path d="M2545 1700 c-3 -5 -1 -10 4 -10 6 0 11 5 11 10 0 6 -2 10 -4 10 -3 0
-8 -4 -11 -10z"/>
<path d="M1633 1693 c-24 -9 -7 -153 17 -153 22 0 42 62 35 111 -7 49 -17 57
-52 42z"/>
<path d="M570 1634 c-6 -15 -8 -29 -6 -31 8 -8 23 6 29 27 8 31 -12 35 -23 4z"/>
<path d="M1500 1649 c0 -5 5 -7 10 -4 6 3 10 8 10 11 0 2 -4 4 -10 4 -5 0 -10
-5 -10 -11z"/>
<path d="M1526 1644 c-3 -9 -6 -28 -6 -42 0 -16 -8 -32 -20 -40 -15 -9 -20
-23 -20 -56 0 -52 9 -60 54 -52 45 9 73 67 58 118 -6 18 -13 45 -16 61 -7 30
-40 38 -50 11z m38 -80 c10 -26 7 -56 -6 -52 -18 6 -32 34 -25 52 8 20 23 21
31 0z"/>
<path d="M2176 1623 c-4 -9 0 -23 9 -32 13 -14 15 -13 15 11 0 32 -15 45 -24
21z"/>
<path d="M619 1610 c-1 -11 -2 -25 -3 -32 -1 -6 5 -13 12 -15 8 -3 12 7 12 31
0 37 -19 51 -21 16z"/>
<path d="M2236 1615 c-6 -17 17 -31 34 -20 8 5 8 11 -1 21 -15 18 -25 18 -33
-1z"/>
<path d="M1394 1550 c8 -43 17 -53 47 -48 23 3 23 4 -14 43 l-39 40 6 -35z"/>
<path d="M141 1554 c0 -11 3 -14 6 -6 3 7 2 16 -1 19 -3 4 -6 -2 -5 -13z"/>
<path d="M544 1517 c-36 -19 -45 -47 -16 -47 26 0 68 46 49 53 -7 3 -22 0 -33
-6z"/>
<path d="M1543 1414 c-11 -29 11 -49 57 -52 59 -4 68 10 20 32 -22 9 -40 22
-40 27 0 16 -30 10 -37 -7z"/>
<path d="M1221 1399 c-34 -21 -75 -31 -118 -31 -12 0 -30 -9 -39 -19 -14 -16
-15 -22 -5 -32 10 -9 15 -9 18 -1 2 7 13 10 24 7 15 -4 18 -2 12 13 -6 18 -6
18 15 0 12 -11 22 -14 22 -8 0 6 7 9 15 6 8 -4 15 -1 15 5 0 7 11 4 27 -6 19
-13 25 -14 18 -4 -6 11 -2 10 16 -2 36 -26 40 -21 17 18 -27 47 -17 56 12 11
28 -47 40 -45 40 4 0 29 -5 42 -19 50 -27 14 -31 13 -70 -11z"/>
<path d="M460 1383 c0 -5 4 -15 10 -23 11 -18 25 -7 17 15 -6 15 -27 21 -27 8z"/>
<path d="M554 1373 c-15 -11 -44 -68 -44 -88 0 -13 4 -14 20 -5 22 12 64 4 55
-10 -3 -4 2 -10 9 -13 9 -4 25 8 40 28 22 28 24 38 16 59 -5 14 -17 26 -27 26
-10 0 -27 3 -38 5 -11 3 -25 2 -31 -2z"/>
<path d="M675 1349 c-10 -30 0 -33 13 -4 6 14 7 25 2 25 -5 0 -12 -9 -15 -21z"/>
<path d="M2514 1335 c-8 -21 1 -42 25 -55 20 -10 21 -8 21 30 0 34 -3 40 -20
40 -11 0 -23 -7 -26 -15z"/>
<path d="M1893 1306 c-21 -18 -53 -41 -70 -50 -41 -20 -41 -26 -3 -26 28 0 77
39 119 93 23 30 -6 19 -46 -17z"/>
<path d="M830 1316 c0 -2 7 -7 16 -10 8 -3 12 -2 9 4 -6 10 -25 14 -25 6z"/>
<path d="M10 1291 c0 -12 6 -21 16 -21 9 0 14 7 12 17 -5 25 -28 28 -28 4z"/>
<path d="M1924 1264 c-19 -23 -41 -38 -63 -43 -50 -10 -48 -26 2 -41 34 -9 50
-9 66 0 12 6 36 10 54 8 45 -4 46 26 3 74 l-33 38 -29 -36z"/>
<path d="M96 1258 c-18 -10 -18 -11 4 -23 17 -9 30 -10 46 -3 27 13 40 38 19
38 -8 0 -15 -8 -16 -17 0 -15 -2 -15 -7 -3 -9 19 -22 21 -46 8z"/>
<path d="M211 1241 c-14 -9 -9 -41 8 -41 13 0 23 32 14 41 -5 5 -14 4 -22 0z"/>
<path d="M1228 1237 c-42 -16 -42 -34 -1 -48 32 -10 38 -9 50 7 7 10 13 21 13
26 0 16 -36 24 -62 15z"/>
<path d="M2095 1210 c28 -12 55 -12 55 0 0 6 -17 10 -37 9 -31 0 -34 -2 -18
-9z"/>
<path d="M1715 1152 c-46 -29 -60 -49 -45 -67 16 -20 31 -19 23 0 -16 43 82
77 107 38 8 -13 13 -14 16 -5 8 17 24 15 24 -4 0 -8 4 -13 9 -10 5 3 12 -4 15
-17 l7 -22 10 23 c10 27 4 42 -17 42 -8 0 -34 9 -56 20 -51 24 -55 25 -93 2z"/>
<path d="M1970 1111 c-29 -5 -35 -10 -35 -31 0 -35 46 -56 94 -44 28 7 35 14
33 29 -3 19 -38 56 -51 54 -3 -1 -22 -4 -41 -8z m17 -57 c-3 -3 -12 -4 -19 -1
-8 3 -5 6 6 6 11 1 17 -2 13 -5z"/>
<path d="M728 1078 c-9 -26 4 -49 26 -46 21 3 38 48 18 48 -6 0 -17 3 -25 6
-8 3 -17 -1 -19 -8z"/>
<path d="M1725 1060 c-3 -5 3 -10 14 -10 11 0 23 5 26 10 3 6 -3 10 -14 10
-11 0 -23 -4 -26 -10z"/>
<path d="M955 1033 c4 -10 8 -24 8 -30 1 -18 10 -6 14 16 1 11 -5 22 -13 25
-12 5 -15 2 -9 -11z"/>
<path d="M1840 1031 c0 -9 41 -23 48 -16 2 2 1 8 -3 14 -8 13 -45 15 -45 2z"/>
<path d="M2530 1006 c0 -2 7 -6 15 -10 8 -3 15 -1 15 4 0 6 -7 10 -15 10 -8 0
-15 -2 -15 -4z"/>
<path d="M684 965 c-18 -28 -10 -59 27 -104 19 -23 20 -23 63 -7 48 18 90 60
82 82 -3 8 -19 17 -36 20 -16 4 -35 13 -41 20 -20 24 -76 17 -95 -11z"/>
<path d="M2530 980 c8 -5 20 -10 25 -10 6 0 3 5 -5 10 -8 5 -19 10 -25 10 -5
0 -3 -5 5 -10z"/>
<path d="M460 965 c-22 -27 -5 -37 19 -11 19 20 21 26 9 26 -9 0 -21 -7 -28
-15z"/>
<path d="M505 959 c-10 -31 0 -33 19 -4 14 21 14 25 2 25 -8 0 -18 -9 -21 -21z"/>
<path d="M2238 933 c-20 -5 -22 -12 -8 -33 7 -12 12 -12 29 4 34 31 26 42 -21
29z"/>
<path d="M2277 908 c-29 -31 -27 -41 9 -52 18 -5 22 -1 27 21 3 16 9 36 12 46
11 27 -16 19 -48 -15z"/>
<path d="M2520 916 c0 -2 9 -6 20 -9 11 -3 20 -1 20 4 0 5 -9 9 -20 9 -11 0
-20 -2 -20 -4z"/>
<path d="M2490 868 c-11 -18 -20 -38 -20 -44 0 -22 -37 -44 -90 -54 -29 -5
-54 -10 -56 -10 -2 0 -4 -5 -4 -11 0 -26 -51 -59 -91 -59 -21 0 -39 5 -39 10
0 6 5 10 10 10 6 0 18 8 28 18 10 9 33 25 52 34 26 12 30 17 15 17 -11 1 -33
-8 -50 -19 -16 -12 -43 -27 -60 -34 -52 -24 -83 -61 -77 -93 2 -15 10 -35 18
-43 7 -8 16 -27 19 -43 4 -15 20 -37 35 -50 15 -13 36 -36 46 -53 21 -33 35
-45 45 -38 4 2 23 34 41 70 l33 66 -26 21 c-30 25 -45 96 -25 120 15 20 53 30
61 17 3 -5 19 -10 34 -10 31 0 51 -16 51 -41 0 -10 16 -27 36 -39 l35 -22 25
23 c23 21 24 28 24 145 0 112 -2 124 -19 134 -28 14 -29 14 -51 -22z"/>
<path d="M1325 880 c-3 -5 -12 -7 -20 -3 -25 9 -65 -6 -65 -25 1 -16 1 -16 11
0 8 14 18 16 54 11 38 -5 45 -3 45 11 0 18 -15 22 -25 6z"/>
<path d="M2413 875 c-7 -8 -20 -18 -29 -23 -19 -10 -11 -32 11 -32 17 0 38 35
33 55 -2 11 -5 11 -15 0z"/>
<path d="M1406 865 c-11 -8 -16 -15 -10 -15 5 0 18 7 28 15 11 8 16 15 10 15
-5 0 -18 -7 -28 -15z"/>
<path d="M1695 840 c10 -35 25 -49 25 -23 0 11 -7 27 -16 34 -15 12 -16 11 -9
-11z"/>
<path d="M32 839 c2 -7 10 -15 17 -17 8 -3 12 1 9 9 -2 7 -10 15 -17 17 -8 3
-12 -1 -9 -9z"/>
<path d="M1404 834 c-18 -15 -18 -15 6 -10 14 3 33 6 43 6 10 0 15 5 12 10 -9
15 -39 12 -61 -6z"/>
<path d="M502 818 c4 -23 3 -26 -13 -18 -9 6 -20 15 -22 22 -3 7 -6 -6 -6 -28
-1 -47 14 -59 55 -44 14 6 28 10 32 10 8 0 -81 -53 -115 -69 -31 -14 -29 -19
14 -37 l37 -16 29 34 28 33 -21 -42 c-23 -48 -26 -49 -77 -28 -20 8 -38 14
-40 12 -2 -2 7 -17 19 -33 20 -26 20 -27 2 -11 -23 19 -39 23 -28 6 5 -8 1 -8
-14 0 -38 20 -61 13 -86 -28 -20 -31 -32 -39 -65 -45 -35 -5 -169 7 -213 20
-14 4 -18 -1 -18 -20 0 -20 7 -27 32 -34 21 -6 32 -14 30 -24 -1 -8 7 -23 18
-33 11 -10 20 -29 20 -42 0 -12 5 -23 11 -23 6 0 9 -14 7 -32 l-3 -33 -57 3
-58 4 0 -161 0 -161 221 0 c206 0 221 1 215 18 -5 14 -3 13 10 -3 16 -19 16
-18 10 20 -4 28 -2 35 4 25 9 -13 11 -13 19 0 15 22 3 30 -35 25 -18 -2 -34 0
-34 5 0 14 -37 13 -46 -1 -3 -6 7 -24 22 -41 22 -24 24 -28 7 -16 -12 8 -32
26 -43 41 -23 30 -45 27 -37 -5 5 -18 3 -17 -16 4 -21 22 -21 23 -4 30 10 4
51 10 90 12 40 3 92 8 117 11 l45 7 -7 89 c-4 49 -9 93 -12 97 -3 5 -24 22
-48 37 -54 36 -98 82 -98 101 0 8 9 32 20 54 11 22 20 47 21 57 0 11 3 13 6 5
4 -10 8 -10 19 -1 11 9 14 7 14 -13 0 -21 6 -26 38 -32 20 -3 43 -6 50 -6 18
0 36 50 22 64 -5 5 -10 16 -10 24 0 10 4 10 16 -3 9 -9 18 -14 21 -11 8 7 -21
46 -35 46 -10 0 -12 11 -7 43 3 23 7 49 9 58 1 10 7 23 13 31 11 13 3 41 -11
39 -23 -3 -37 1 -52 16 -16 17 -17 16 -12 -9z m-75 -770 c-3 -8 -6 -5 -6 6 -1
11 2 17 5 13 3 -3 4 -12 1 -19z"/>
<path d="M1230 822 c0 -5 10 -17 21 -28 12 -10 24 -27 28 -36 5 -14 9 -12 23
12 16 28 16 30 -1 30 -9 0 -26 7 -37 15 -22 16 -34 19 -34 7z"/>
<path d="M1401 810 c-49 -21 -63 -49 -56 -115 5 -43 2 -73 -9 -104 -15 -41
-15 -45 1 -57 10 -7 15 -16 10 -20 -4 -4 -13 -2 -19 4 -23 23 -69 13 -117 -24
-2 -2 8 -19 23 -39 29 -38 51 -43 82 -20 10 8 26 15 35 15 9 0 24 10 35 21 32
37 72 48 150 42 71 -6 72 -6 85 23 10 21 23 30 44 32 17 2 34 7 39 12 13 13
-18 55 -51 69 -34 15 -83 82 -83 115 0 13 -7 29 -15 36 -19 16 -124 23 -154
10z m-21 -324 c0 -2 -8 -10 -17 -17 -16 -13 -17 -12 -4 4 13 16 21 21 21 13z"/>
<path d="M1207 782 c-3 -17 -18 -47 -32 -67 -14 -21 -23 -40 -21 -42 6 -6 60
23 75 41 15 17 11 88 -5 93 -6 2 -14 -9 -17 -25z"/>
<path d="M2138 773 c-31 -5 -68 -46 -68 -74 0 -29 28 -22 63 15 18 19 48 41
67 49 l35 15 -35 0 c-19 -1 -47 -3 -62 -5z"/>
<path d="M3 720 c0 -25 2 -35 4 -22 2 12 2 32 0 45 -2 12 -4 2 -4 -23z"/>
<path d="M591 704 l-21 -36 21 -29 c47 -66 95 -1 52 72 -10 16 -20 29 -24 29
-4 0 -17 -16 -28 -36z"/>
<path d="M776 686 c-8 -34 4 -86 21 -86 11 0 13 12 11 52 -3 55 -22 75 -32 34z"/>
<path d="M1285 680 c-3 -5 1 -10 10 -10 9 0 13 5 10 10 -3 6 -8 10 -10 10 -2
0 -7 -4 -10 -10z"/>
<path d="M1926 612 c-3 -5 -34 -7 -68 -5 -57 5 -66 3 -90 -20 -16 -15 -28 -35
-28 -46 0 -22 -27 -41 -60 -41 -30 0 -49 -23 -52 -62 -4 -45 -25 -65 -89 -86
-44 -14 -57 -23 -68 -49 -20 -45 -52 -53 -206 -53 -109 0 -134 3 -139 15 -3 8
-14 15 -24 15 -25 0 -88 59 -97 90 -4 14 -16 39 -26 56 -11 17 -19 38 -19 47
0 8 -15 24 -34 35 -54 32 -75 36 -95 17 -10 -8 -43 -20 -72 -26 -30 -5 -74
-14 -98 -18 -41 -8 -91 -48 -91 -74 0 -5 21 -29 46 -55 25 -26 43 -42 40 -35
-11 21 19 20 31 -1 36 -61 42 -80 27 -91 -20 -14 5 -49 52 -71 20 -9 40 -27
44 -40 12 -31 29 -39 48 -20 15 14 14 17 -4 38 -12 13 -27 38 -34 56 -12 30
-14 31 -30 17 -24 -22 -43 -18 -21 4 11 11 27 33 35 49 12 23 24 31 56 36 46
7 72 -3 110 -44 14 -15 48 -35 75 -45 28 -10 68 -26 91 -36 22 -11 44 -19 48
-19 5 0 24 -13 42 -30 37 -32 104 -54 142 -47 19 4 34 -4 65 -35 37 -36 43
-39 91 -36 l51 3 -1 45 c-1 25 -5 64 -9 87 -5 28 -4 43 3 43 6 0 24 12 41 26
26 22 35 24 64 16 34 -10 78 -47 97 -83 6 -11 15 -17 21 -14 14 9 11 -12 -9
-53 -29 -59 -21 -72 49 -72 59 0 59 0 59 30 0 18 -5 30 -13 30 -10 0 -15 21
-17 78 -4 112 -4 114 11 152 10 26 19 34 33 32 10 -2 37 3 60 12 52 20 75 57
68 110 -3 25 -1 36 6 32 6 -3 12 16 17 50 5 43 11 57 28 65 21 9 21 9 -2 6
-18 -1 -28 -11 -37 -37 l-12 -35 -3 45 -4 45 -47 3 c-25 2 -49 -1 -52 -6z
m-96 -152 c15 -30 28 -65 33 -87 5 -21 1 -23 -36 -23 -72 0 -102 59 -54 107
24 25 46 26 57 3z m-173 -12 c-3 -8 -6 -5 -6 6 -1 11 2 17 5 13 3 -3 4 -12 1
-19z"/>
<path d="M878 583 c6 -2 18 -2 25 0 6 3 1 5 -13 5 -14 0 -19 -2 -12 -5z"/>
<path d="M875 550 c28 -12 47 -12 40 0 -3 6 -18 10 -33 9 -24 0 -25 -1 -7 -9z"/>
<path d="M2072 535 c-22 -48 -10 -73 19 -39 7 8 21 13 31 11 22 -6 23 2 2 31
-20 29 -38 28 -52 -3z"/>
<path d="M1020 519 c0 -5 -4 -7 -10 -4 -13 8 -13 -5 0 -25 7 -11 10 -11 10 -2
0 7 5 10 10 7 6 -3 10 3 10 14 0 12 -4 21 -10 21 -5 0 -10 -5 -10 -11z"/>
<path d="M1526 483 c-3 -4 -6 -20 -6 -37 l0 -31 20 25 c11 14 20 28 20 31 0
10 -27 19 -34 12z"/>
<path d="M514 436 c0 -13 4 -22 9 -19 10 6 9 43 -2 43 -5 0 -8 -11 -7 -24z"/>
<path d="M1542 424 c-32 -33 -32 -34 -9 -34 27 0 57 28 57 53 0 24 -11 20 -48
-19z"/>
<path d="M1066 434 c-17 -45 2 -85 22 -47 9 15 13 12 31 -18 12 -20 17 -35 10
-38 -6 -2 -3 -11 7 -22 13 -15 30 -19 78 -18 l61 0 -37 15 c-33 14 -88 78 -88
103 0 27 -75 49 -84 25z m84 -64 c7 -16 16 -30 20 -30 4 0 10 -7 13 -14 12
-31 -20 -4 -39 32 -27 54 -28 55 -17 49 6 -4 16 -20 23 -37z"/>
<path d="M2536 431 c-22 -24 -56 -91 -56 -109 0 -13 -30 -110 -37 -121 -2 -3
-10 4 -18 15 -14 19 -14 19 -15 -2 0 -26 -30 -54 -57 -54 -11 0 -34 -7 -49
-15 -16 -8 -37 -12 -46 -9 -10 3 -18 1 -18 -5 0 -6 -6 -11 -14 -11 -8 0 -16
-6 -19 -14 -7 -17 18 -40 33 -31 5 3 13 -1 16 -9 3 -9 10 -16 15 -16 4 0 19
-11 33 -25 21 -20 35 -25 79 -25 l53 0 11 76 c6 41 13 77 15 80 9 8 87 -31 92
-46 2 -8 4 65 5 163 0 97 -1 177 -2 177 -2 0 -12 -8 -21 -19z m-46 -245 c0 -3
-4 -8 -10 -11 -5 -3 -10 -1 -10 4 0 6 5 11 10 11 6 0 10 -2 10 -4z m48 -45
c-12 -4 -28 17 -28 39 0 10 7 7 20 -10 11 -15 15 -26 8 -29z"/>
<path d="M2093 422 c-22 -17 -49 -72 -35 -72 4 0 16 14 27 30 11 16 28 30 38
30 9 0 17 7 17 15 0 20 -20 19 -47 -3z"/>
<path d="M1476 412 c-3 -6 -1 -14 5 -17 15 -10 25 3 12 16 -7 7 -13 7 -17 1z"/>
<path d="M2217 383 c-4 -3 3 -17 15 -30 16 -17 24 -20 35 -12 7 6 13 20 13 30
0 14 -7 19 -28 19 -16 0 -32 -3 -35 -7z"/>
<path d="M1317 322 c-22 -24 -13 -32 32 -32 44 0 66 13 58 34 -9 23 -69 21
-90 -2z"/>
<path d="M565 274 c8 -56 25 -95 36 -88 5 3 9 0 9 -7 0 -7 11 1 25 17 20 22
25 36 20 58 -7 41 -33 66 -68 66 -29 0 -29 0 -22 -46z"/>
<path d="M1993 256 c34 -31 21 -35 -17 -5 -28 22 -32 19 -16 -11 8 -15 6 -17
-10 -13 -27 7 -25 -12 3 -32 22 -17 22 -17 -10 -13 -36 5 -39 1 -20 -26 30
-41 133 26 108 71 -5 11 -23 28 -38 37 l-28 17 28 -25z"/>
<path d="M2306 208 c7 -11 74 -10 74 2 0 5 -18 9 -40 8 -21 -1 -37 -5 -34 -10z"/>
<path d="M2355 180 c-3 -5 -1 -10 4 -10 6 0 11 5 11 10 0 6 -2 10 -4 10 -3 0
-8 -4 -11 -10z"/>
<path d="M656 152 c-23 -26 -20 -32 14 -32 33 0 36 6 16 32 -12 17 -14 17 -30
0z"/>
<path d="M1010 151 c0 -24 14 -41 35 -41 23 0 35 -17 35 -51 0 -23 19 -24 68
-4 41 18 41 18 -41 61 -66 34 -97 45 -97 35z"/>
<path d="M2030 148 c-32 -16 -41 -29 -34 -51 3 -9 -2 -31 -10 -48 -9 -17 -13
-35 -10 -40 3 -5 45 -9 95 -9 80 0 89 2 89 19 0 10 7 24 15 31 8 7 15 24 15
38 0 14 -3 23 -6 19 -3 -3 -16 5 -28 18 -25 29 -89 40 -126 23z"/>
<path d="M934 136 c-3 -7 -4 -35 -2 -62 4 -57 30 -73 49 -30 10 21 9 29 -4 44
-10 10 -17 28 -17 40 0 24 -18 30 -26 8z"/>
<path d="M1615 142 c-13 -9 -18 -62 -6 -62 5 0 12 -18 16 -41 l7 -40 46 3 c25
2 47 8 49 15 3 9 -4 10 -26 3 -36 -10 -54 6 -70 65 -17 62 -12 65 10 8 17 -43
25 -53 44 -53 13 0 27 5 30 10 3 6 -4 10 -18 10 -18 0 -28 9 -42 40 -21 46
-27 52 -40 42z"/>
<path d="M1577 109 c4 -13 8 -18 11 -10 2 7 -1 18 -6 23 -8 8 -9 4 -5 -13z"/>
<path d="M593 59 c-16 -5 -23 -17 -23 -34 0 -24 3 -25 55 -25 52 0 55 1 55 24
0 14 -3 27 -7 29 -20 11 -60 14 -80 6z"/>
<path d="M1225 30 l-29 -30 80 0 79 0 -30 20 c-26 17 -27 20 -10 21 17 1 16 2
-5 9 -43 14 -55 11 -85 -20z"/>
</g>
</svg>
