<?xml version="1.0" standalone="no"?>
<!DOCTYPE svg PUBLIC "-//W3C//DTD SVG 20010904//EN"
 "http://www.w3.org/TR/2001/REC-SVG-20010904/DTD/svg10.dtd">
<svg version="1.0" xmlns="http://www.w3.org/2000/svg"
 width="691.000000pt" height="691.000000pt" viewBox="0 0 691.000000 691.000000"
 preserveAspectRatio="xMidYMid meet">
<metadata>
Created by potrace 1.11, written by Peter Selinger 2001-2013
</metadata>
<g transform="translate(0.000000,691.000000) scale(0.100000,-0.100000)"
fill="#000000" stroke="none">
<path d="M3685 6676 c-82 -13 -242 -48 -355 -78 -540 -146 -826 -225 -910
-252 -25 -8 -103 -31 -175 -51 -71 -20 -184 -55 -250 -77 -66 -22 -139 -44
-162 -50 -91 -21 -396 -192 -531 -299 -53 -42 -102 -78 -109 -80 -23 -8 -216
-185 -243 -224 -16 -22 -59 -71 -96 -110 -77 -79 -229 -282 -251 -335 -9 -19
-29 -54 -45 -79 -90 -130 -267 -549 -307 -726 -72 -317 -95 -533 -88 -835 5
-241 11 -296 57 -547 70 -384 287 -843 554 -1168 76 -93 304 -313 392 -379 43
-33 99 -75 123 -93 24 -18 48 -33 52 -33 9 0 320 -190 329 -200 11 -13 272
-170 307 -185 21 -9 47 -24 58 -34 11 -10 83 -56 160 -103 77 -47 174 -108
215 -135 94 -63 384 -213 510 -263 288 -114 508 -159 821 -167 327 -8 580 29
863 126 32 12 63 18 70 14 6 -3 8 -3 4 2 -5 4 34 25 85 45 50 20 140 62 199
93 60 31 112 57 118 57 28 0 283 178 440 307 143 118 213 189 438 442 62 70
300 427 350 526 44 87 141 296 167 360 95 233 198 584 224 765 35 239 46 396
46 655 0 444 -44 760 -152 1085 -19 58 -36 110 -37 115 -2 6 -7 19 -11 30 -4
11 -21 54 -37 95 -49 124 -221 477 -248 508 -8 9 -44 60 -79 112 -89 131 -172
238 -266 340 -85 92 -312 306 -344 324 -10 6 -92 60 -181 120 -255 170 -462
259 -793 341 -279 69 -623 84 -912 41z m-177 -1968 c37 -29 99 -86 139 -126
70 -71 183 -225 183 -249 0 -7 16 -41 35 -76 110 -200 166 -525 136 -786 -12
-100 -50 -274 -70 -316 -22 -46 -84 -193 -97 -229 -31 -82 -167 -251 -304
-377 -108 -99 -124 -110 -220 -156 -71 -34 -209 -93 -216 -93 -2 0 -18 21 -35
48 -18 26 -36 49 -40 52 -9 7 -55 85 -84 145 -74 154 -117 272 -147 406 -21
96 -23 127 -23 389 0 333 10 398 97 630 63 168 100 242 186 372 38 57 75 114
84 128 30 49 114 135 207 212 52 43 96 78 98 78 2 0 34 -24 71 -52z"/>
</g>
</svg>
