<?xml version="1.0" standalone="no"?>
<!DOCTYPE svg PUBLIC "-//W3C//DTD SVG 20010904//EN"
 "http://www.w3.org/TR/2001/REC-SVG-20010904/DTD/svg10.dtd">
<svg version="1.0" xmlns="http://www.w3.org/2000/svg"
 width="908.000000pt" height="908.000000pt" viewBox="0 0 908.000000 908.000000"
 preserveAspectRatio="xMidYMid meet">
<metadata>
Created by potrace 1.11, written by Peter Selinger 2001-2013
</metadata>
<g transform="translate(0.000000,908.000000) scale(0.100000,-0.100000)"
fill="#000000" stroke="none">
<path d="M140 8935 c0 -8 -7 -15 -15 -15 -13 0 -15 -496 -15 -4400 0 -3904 2
-4400 15 -4400 8 0 15 -7 15 -15 0 -13 496 -15 4400 -15 3904 0 4400 2 4400
15 0 8 7 15 15 15 13 0 15 496 15 4400 0 3904 -2 4400 -15 4400 -8 0 -15 7
-15 15 0 13 -496 15 -4400 15 -3904 0 -4400 -2 -4400 -15z m4870 -60 c0 -3
-54 -451 -120 -996 l-120 -991 -27 -22 c-15 -11 -361 -285 -768 -609 -407
-323 -747 -586 -756 -585 -8 2 -696 233 -1527 513 l-1512 510 0 1093 0 1092
2415 0 c1328 0 2415 -2 2415 -5z m1044 -345 c27 -193 47 -352 45 -354 -3 -3
-389 85 -960 218 l-115 27 22 187 c13 103 26 206 29 230 l6 42 462 0 462 0 49
-350z m958 -97 c20 -246 36 -449 35 -449 -3 -3 -890 175 -894 179 -1 2 -23
150 -48 328 -25 178 -47 339 -50 357 l-6 32 463 0 464 0 36 -447z m938 430 c0
-10 12 -224 26 -476 15 -251 25 -459 23 -461 -2 -1 -184 7 -404 20 -220 13
-423 23 -450 24 l-51 0 -33 413 c-18 226 -35 431 -38 455 l-6 42 467 0 c437 0
466 -1 466 -17z m960 -501 l0 -518 -32 3 c-18 2 -210 19 -427 38 -217 19 -396
37 -399 39 -2 3 -15 184 -27 403 -13 219 -26 433 -30 476 l-5 77 460 0 460 0
0 -518z m-3342 -114 l532 -122 0 -31 c-1 -49 -76 -604 -83 -611 -5 -5 -1039
408 -1054 420 -3 2 46 413 53 444 2 12 8 22 12 22 4 1 247 -54 540 -122z m807
-178 c109 -22 200 -40 201 -40 2 0 8 -100 18 -297 l5 -92 -237 80 c-130 45
-240 84 -245 88 -4 4 -1 59 8 122 22 168 25 179 39 179 7 0 102 -18 211 -40z
m480 -96 c105 -20 192 -39 194 -40 4 -4 41 -427 37 -431 -2 -2 -437 124 -441
129 -2 2 -7 90 -11 197 -7 187 -6 193 12 188 10 -3 105 -23 209 -43z m518 -60
l157 -7 0 -26 c1 -14 7 -116 14 -226 8 -110 13 -200 12 -201 0 -1 -89 7 -196
17 -107 10 -202 18 -211 19 -13 0 -18 33 -32 208 -10 114 -17 213 -17 221 0
11 12 12 58 8 31 -4 128 -9 215 -13z m540 -31 l97 -6 0 -238 0 -238 -32 5
c-18 3 -109 13 -201 23 -92 10 -170 20 -172 22 -1 2 -9 105 -17 228 l-13 224
120 -7 c66 -4 164 -9 218 -13z m591 -48 c214 -19 393 -35 398 -35 4 0 8 -236
8 -525 0 -410 -3 -525 -12 -525 -20 0 -823 121 -826 125 -3 3 -21 767 -22 928
l0 67 33 0 c18 0 207 -16 421 -35z m-3016 -194 c283 -115 515 -211 517 -213 3
-3 -148 -479 -169 -534 -3 -8 -156 70 -462 236 -251 137 -461 253 -466 258
-12 12 43 462 56 462 6 0 242 -94 524 -209z m740 78 l104 -34 -7 -65 c-4 -36
-9 -67 -11 -69 -4 -4 -205 69 -217 79 -13 11 4 132 17 127 6 -2 58 -19 114
-38z m269 -90 l102 -33 -6 -70 c-3 -39 -7 -73 -9 -75 -7 -8 -219 77 -218 87 1
7 2 39 3 73 1 44 4 60 14 56 6 -2 58 -19 114 -38z m-292 -91 l111 -41 -8 -61
c-5 -34 -9 -64 -11 -67 -1 -4 -55 14 -119 40 -87 34 -117 50 -114 61 3 8 7 36
11 63 3 26 9 47 12 47 4 0 57 -19 118 -42z m545 14 l95 -28 3 -87 c1 -48 1
-87 0 -87 -2 0 -50 18 -108 39 -97 36 -105 41 -104 65 2 94 5 126 12 126 4 0
50 -13 102 -28z m249 -73 c95 -27 95 -27 104 -140 l5 -77 -102 34 -103 35 -7
61 c-9 93 -8 121 7 116 6 -3 50 -15 96 -29z m-436 -74 c14 -6 17 -20 17 -81 0
-41 -2 -74 -5 -74 -3 0 -57 21 -120 46 l-115 46 5 37 c3 20 8 50 11 68 l5 32
92 -33 c51 -19 100 -37 110 -41z m713 29 l51 -6 6 -96 c4 -53 5 -97 3 -100 -4
-4 -177 15 -181 20 -2 2 -6 45 -10 96 l-7 92 43 0 c24 0 67 -3 95 -6z m221
-20 l60 -7 6 -101 c3 -55 4 -102 3 -103 -1 -1 -43 3 -94 9 l-92 11 0 61 c0 34
-3 78 -6 99 -7 37 -6 37 28 37 19 0 62 -3 95 -6z m-1324 -52 l115 -47 -19 -49
c-10 -26 -20 -50 -22 -52 -3 -4 -215 82 -224 90 -4 3 27 106 31 106 2 0 55
-21 119 -48z m1707 10 l135 -17 3 -238 2 -238 -32 6 c-18 3 -107 16 -197 30
-90 13 -165 26 -167 27 -1 2 -7 106 -11 232 l-8 228 70 -7 c39 -4 131 -14 205
-23z m-1140 -31 l105 -39 3 -82 c3 -76 1 -82 -15 -76 -116 43 -206 83 -210 93
-5 11 5 143 10 143 1 0 49 -18 107 -39z m-1291 -303 c194 -106 354 -197 354
-202 0 -13 -337 -506 -345 -503 -12 4 -618 548 -618 555 0 4 12 107 26 229
l27 223 101 -54 c56 -30 260 -142 455 -248z m1110 165 c3 -2 -7 -28 -22 -58
l-26 -54 -33 13 c-18 8 -68 30 -111 50 l-77 35 20 53 c11 29 20 54 20 55 0 2
223 -89 229 -94z m462 38 c94 -31 93 -30 102 -152 l4 -66 -113 45 -114 46 0
83 c0 79 1 84 19 78 11 -3 57 -18 102 -34z m-904 -27 c59 -26 109 -47 110 -48
5 -5 -41 -106 -48 -106 -4 0 -49 20 -99 44 -49 25 -95 46 -100 48 -8 2 18 108
26 108 1 0 51 -21 111 -46z m1217 -34 c5 -5 11 -52 14 -106 l5 -97 -24 6 c-13
3 -49 9 -80 12 -31 4 -61 10 -66 13 -6 4 -14 49 -18 101 l-7 93 83 -7 c46 -4
88 -11 93 -15z m-674 -16 c42 -17 45 -21 32 -42 -13 -19 -104 21 -96 43 8 19
14 19 64 -1z m837 0 l71 -6 4 -102 c2 -55 3 -103 1 -105 -1 -2 -40 2 -86 9
l-85 12 -6 36 c-3 21 -6 68 -6 105 0 60 2 68 18 63 9 -3 49 -8 89 -12z m-1139
-59 c1 -1 0 -9 -4 -18 -5 -14 -9 -14 -42 0 -47 19 -54 26 -46 46 5 15 10 14
47 -5 23 -11 43 -22 45 -23z m457 -5 c22 -8 24 -13 15 -29 -10 -19 -12 -19
-48 -5 -47 20 -54 27 -46 47 4 12 11 14 30 6 13 -5 35 -13 49 -19z m-755 -36
c55 -26 100 -50 100 -54 0 -12 -40 -100 -46 -100 -7 0 -168 81 -180 92 -9 6
-8 21 4 58 9 28 17 50 19 50 2 0 48 -21 103 -46z m575 16 c22 -8 24 -13 15
-30 -10 -19 -11 -19 -55 2 -37 18 -42 24 -34 40 8 14 14 16 29 8 10 -5 30 -14
45 -20z m-156 -33 c8 -24 -7 -30 -40 -17 -45 17 -51 24 -44 43 6 14 10 14 44
-1 20 -9 38 -20 40 -25z m-159 -23 c0 -22 -18 -25 -54 -7 -33 15 -44 32 -30
45 9 10 84 -24 84 -38z m632 22 c25 -11 27 -14 14 -31 -13 -18 -15 -18 -60 -1
-41 16 -45 20 -35 37 11 21 20 20 81 -5z m-199 -16 c36 -14 47 -32 26 -45 -6
-4 -30 0 -54 10 -40 15 -43 18 -32 36 6 10 14 18 17 16 3 -1 22 -9 43 -17z
m-140 -39 c4 -4 1 -14 -8 -21 -13 -11 -22 -10 -55 5 -33 15 -38 20 -29 36 9
18 12 18 47 3 20 -8 41 -19 45 -23z m495 -19 c1 -5 -4 -15 -13 -22 -13 -11
-22 -10 -55 5 -45 20 -44 19 -30 45 10 19 11 19 52 0 24 -10 44 -23 46 -28z
m-685 16 c29 -11 31 -16 19 -36 -7 -10 -16 -9 -48 4 -48 20 -46 18 -38 38 4
11 12 15 23 11 9 -4 28 -12 44 -17z m-169 -15 c29 -14 33 -19 25 -35 -9 -17
-11 -17 -49 2 -27 14 -38 25 -34 35 8 19 15 19 58 -2z m631 0 c39 -19 42 -25
20 -43 -13 -10 -23 -10 -55 5 -34 15 -37 20 -27 36 14 23 17 23 62 2z m-177
-21 c36 -16 39 -19 26 -37 -13 -18 -15 -18 -53 0 -34 15 -39 20 -30 36 12 23
8 23 57 1z m-708 -37 c50 -25 90 -49 90 -54 0 -13 -51 -101 -58 -101 -4 0 -42
22 -84 49 l-77 49 17 51 c9 28 17 51 19 51 2 0 44 -20 93 -45z m1292 30 c32
-4 61 -12 66 -19 5 -6 24 -54 41 -106 18 -52 35 -101 38 -108 4 -10 -11 -12
-68 -10 l-73 3 -53 125 c-29 68 -53 126 -53 128 0 2 10 2 23 -1 12 -3 48 -9
79 -12z m-757 -12 c38 -18 39 -21 26 -42 -16 -25 -86 14 -75 43 8 20 6 20 49
-1z m642 -110 c-14 -14 -17 -11 -36 25 -24 48 -26 63 -8 81 10 10 17 2 36 -39
21 -47 22 -54 8 -67z m-803 92 c32 -14 35 -18 26 -35 -13 -24 -11 -25 -54 1
-22 13 -33 26 -29 35 7 18 12 18 57 -1z m642 0 c31 -13 33 -16 22 -35 -15 -24
-19 -24 -63 -6 -37 16 -42 25 -23 44 15 15 21 15 64 -3z m564 -22 c4 -4 15
-33 24 -63 9 -30 22 -76 30 -103 l15 -47 -72 6 c-40 4 -77 12 -83 18 -6 6 -26
54 -44 106 -18 52 -35 100 -37 106 -5 13 154 -9 167 -23z m-1342 -32 c-11 -18
-12 -18 -45 1 -37 22 -35 20 -27 42 5 14 11 13 45 -4 34 -18 37 -23 27 -39z
m599 31 c31 -17 31 -18 14 -38 l-17 -22 -36 22 c-29 17 -34 25 -27 39 12 21
25 21 66 -1z m-179 -20 c30 -16 31 -19 18 -37 -14 -19 -14 -19 -49 0 -29 15
-34 22 -26 37 12 22 15 22 57 0z m1177 -9 c99 -14 183 -29 187 -32 4 -3 29
-108 56 -233 l48 -228 -35 5 c-20 3 -96 12 -170 20 -74 8 -137 18 -141 22 -16
18 -147 473 -136 473 6 0 92 -12 191 -27z m-1212 -82 c5 -5 -5 -30 -24 -57
-19 -26 -37 -52 -41 -58 -5 -7 -150 66 -177 90 -2 2 13 30 34 62 l38 58 81
-43 c44 -24 85 -48 89 -52z m-286 51 c18 -11 20 -17 11 -32 -11 -17 -15 -17
-39 -4 -15 7 -31 19 -34 24 -9 15 14 41 29 33 6 -4 21 -13 33 -21z m783 -53
c0 -9 -6 -22 -14 -29 -12 -9 -19 -4 -36 30 -20 40 -21 43 -4 61 18 20 18 19
36 -13 9 -18 17 -40 18 -49z m-170 56 c34 -18 37 -27 15 -45 -13 -11 -22 -10
-51 3 -30 15 -33 20 -24 37 13 24 22 25 60 5z m-727 -42 c45 -25 83 -47 85
-49 4 -3 -69 -114 -76 -114 -12 0 -152 95 -152 103 0 11 51 107 57 107 2 0 41
-21 86 -47z m555 19 c32 -18 33 -18 14 -35 -19 -17 -21 -17 -56 -1 -34 17 -35
19 -19 36 19 22 20 22 61 0z m2130 -111 c7 -2 1 -1041 -7 -1041 -14 0 -605
192 -613 199 -7 6 -208 931 -208 956 0 7 137 -10 413 -51 226 -35 413 -63 415
-63z m-2819 -1027 c704 -630 1281 -1149 1281 -1153 0 -10 -2559 -2296 -2570
-2296 -5 0 -352 271 -770 603 l-760 603 1 1092 0 1092 761 603 c419 331 764
602 768 602 4 0 584 -516 1289 -1146z m-152 1088 l72 -48 -35 -52 c-19 -29
-37 -52 -40 -52 -3 0 -39 23 -80 51 -46 32 -71 56 -66 63 37 58 59 86 67 86 6
0 42 -22 82 -48z m1297 -27 c14 -36 15 -49 6 -60 -11 -13 -16 -7 -36 36 -19
39 -22 55 -13 65 16 19 23 12 43 -41z m-195 7 c16 -31 17 -40 6 -55 -17 -24
-20 -22 -40 23 -15 32 -15 42 -5 55 17 20 17 20 39 -23z m-148 13 c28 -15 28
-17 13 -40 l-15 -24 -35 21 c-28 17 -32 23 -24 39 13 23 22 24 61 4z m-168
-23 c27 -18 27 -19 8 -36 -18 -16 -21 -16 -50 -1 -34 17 -37 25 -19 43 16 16
28 15 61 -6z m446 -54 c17 -40 18 -48 6 -58 -12 -10 -18 -3 -36 33 -19 39 -20
48 -9 62 16 19 14 20 39 -37z m-759 -3 c0 -27 -23 -34 -52 -17 -30 18 -35 31
-16 50 8 8 18 7 40 -6 15 -9 28 -21 28 -27z m570 -14 c10 -25 9 -34 -3 -51
-14 -21 -15 -20 -36 16 -20 34 -21 38 -5 55 20 22 28 19 44 -20z m-852 -21
c39 -25 72 -48 72 -53 0 -4 -16 -32 -36 -62 l-36 -54 -67 46 c-36 26 -70 50
-75 54 -8 7 54 120 64 116 3 -1 38 -22 78 -47z m705 32 c26 -18 27 -19 9 -35
-23 -21 -27 -21 -57 -1 -20 13 -23 20 -14 35 12 24 26 24 62 1z m-997 -53 c47
-32 71 -56 66 -63 -42 -66 -66 -95 -76 -89 -36 20 -136 98 -136 106 0 10 59
97 66 97 3 0 39 -23 80 -51z m826 35 l31 -16 -20 -20 c-19 -19 -22 -19 -52 -4
-27 15 -29 19 -19 36 15 24 20 24 60 4z m-142 -33 c0 -3 -7 -14 -14 -24 -11
-15 -18 -16 -33 -8 -44 25 -46 27 -32 49 12 19 14 19 46 4 18 -9 33 -18 33
-21z m938 24 c6 -5 93 -237 90 -240 -2 -1 -30 -5 -63 -7 l-60 -6 -52 127 c-29
70 -53 131 -53 135 0 6 130 -2 138 -9z m-355 -31 c13 -27 15 -40 6 -56 -10
-19 -12 -18 -35 22 -19 33 -22 46 -13 56 17 21 24 17 42 -22z m542 21 c16 -3
27 -27 52 -112 18 -59 31 -108 30 -109 -1 -1 -29 -4 -63 -8 l-61 -7 -41 108
c-23 59 -44 116 -48 126 -6 16 -1 17 52 12 33 -4 68 -8 79 -10z m-1314 -12
c31 -18 33 -30 8 -46 -11 -7 -24 -4 -42 7 -22 15 -24 20 -14 37 14 23 12 23
48 2z m994 -105 c28 -67 51 -125 53 -129 2 -4 -17 -21 -41 -38 l-44 -30 -57
122 -57 121 43 38 c24 20 45 37 48 37 3 1 28 -54 55 -121z m-6395 -147 l735
-248 -3 -29 c-1 -16 -36 -363 -77 -772 -41 -408 -75 -751 -75 -762 0 -20 -9
-20 -665 -20 l-665 0 0 1040 c0 572 3 1040 8 1040 4 0 338 -112 742 -249z
m6013 163 c26 -47 47 -89 45 -94 -5 -12 -89 -102 -93 -98 -1 2 -25 38 -53 82
l-50 79 46 58 c26 32 49 59 52 59 3 0 27 -39 53 -86z m-175 58 c21 -16 21 -19
7 -39 -15 -21 -16 -21 -45 -5 -32 18 -37 31 -18 50 16 16 29 15 56 -6z m-148
-38 c0 -27 -28 -36 -59 -19 -30 15 -30 16 -15 39 15 24 16 24 45 8 16 -9 29
-22 29 -28z m-160 -14 c0 -3 -7 -13 -14 -23 -13 -17 -15 -17 -45 1 -29 17 -30
20 -15 40 15 22 16 22 45 5 16 -10 29 -20 29 -23z m586 -1 c12 -24 13 -34 3
-45 -17 -21 -24 -18 -44 20 -16 29 -17 37 -6 50 16 19 27 14 47 -25z m-713
-30 c34 -23 64 -43 66 -45 2 -2 -16 -30 -39 -63 l-43 -61 -66 47 c-36 25 -70
50 -75 54 -14 12 64 121 81 115 7 -3 41 -24 76 -47z m-310 -20 c40 -28 71 -55
69 -61 -2 -8 -50 -84 -68 -106 -1 -2 -36 22 -78 53 l-75 57 37 54 c20 29 38
53 40 54 1 0 35 -23 75 -51z m-204 -75 c86 -64 160 -120 165 -125 9 -8 -178
-249 -194 -249 -10 0 -290 249 -290 257 0 8 153 233 158 233 3 0 75 -52 161
-116z m882 101 c29 -15 29 -16 12 -39 -17 -23 -19 -23 -45 -8 -30 18 -35 31
-16 50 15 15 13 15 49 -3z m477 -86 c-21 -14 -24 -11 -43 31 -15 33 -16 42 -5
56 12 14 17 10 38 -32 19 -37 21 -48 10 -55z m-620 55 c7 -5 -19 -44 -29 -44
-5 0 -21 7 -34 16 -23 15 -23 17 -9 40 17 24 16 24 72 -12z m224 -52 c12 -19
14 -32 7 -45 -14 -23 -26 -21 -44 7 -14 20 -14 28 -3 45 17 27 20 27 40 -7z
m322 -9 c15 -32 15 -38 2 -51 -13 -13 -17 -10 -35 25 -15 30 -17 43 -8 52 17
17 22 14 41 -26z m-463 8 c23 -19 23 -19 5 -40 l-19 -20 -29 20 c-28 20 -28
22 -12 40 21 24 26 24 55 0z m-53 -110 c-7 -9 -30 -37 -51 -63 l-38 -47 -70
50 c-38 28 -69 53 -69 56 0 3 18 31 41 63 l41 58 79 -50 c68 -44 77 -53 67
-67z m-330 -58 c-60 -83 -58 -82 -133 -23 -39 31 -62 56 -58 63 3 7 21 33 40
59 l33 46 75 -50 74 -51 -31 -44z m782 98 c17 -34 18 -41 4 -51 -8 -7 -16 -11
-17 -9 -32 45 -37 60 -25 79 7 11 14 20 15 20 2 0 12 -18 23 -39z m192 -17
c19 -37 20 -46 8 -54 -10 -6 -19 3 -35 38 -12 26 -20 50 -18 55 10 17 25 4 45
-39z m-502 -19 c0 -7 -7 -18 -15 -25 -29 -24 -60 41 -32 69 10 10 15 8 30 -10
9 -11 17 -27 17 -34z m1200 -500 c0 -16 -242 -48 -251 -33 -18 28 -231 550
-226 554 2 2 69 8 148 12 l144 7 92 -265 c51 -146 92 -270 93 -275z m-1070
480 c0 -7 -6 -18 -14 -24 -11 -9 -18 -6 -35 17 -19 27 -19 30 -3 46 16 16 18
16 35 -5 9 -12 17 -27 17 -34z m1156 34 l120 -12 49 -229 c26 -125 45 -231 42
-235 -7 -6 -239 -43 -244 -39 -5 4 -183 520 -183 529 0 6 21 7 48 4 26 -4 101
-12 168 -18z m-840 -86 c-8 -19 -17 -12 -40 32 -17 31 -18 38 -5 45 10 7 19 0
32 -26 10 -20 16 -42 13 -51z m-186 12 c0 -6 -5 -16 -12 -23 -9 -9 -17 -4 -34
21 -20 29 -21 34 -6 50 15 16 16 16 34 -10 10 -16 18 -33 18 -38z m465 -57
c28 -67 51 -125 53 -128 3 -7 -79 -42 -84 -37 -2 2 -28 56 -58 120 l-55 117
37 25 c20 14 41 25 47 25 5 0 33 -55 60 -122z m-762 12 l45 -65 -48 -55 c-27
-30 -50 -53 -52 -50 -67 81 -98 124 -98 132 0 17 93 119 100 111 4 -4 27 -37
53 -73z m-285 1 l62 -44 -19 -26 c-11 -14 -34 -42 -53 -63 l-33 -36 -66 52
-67 53 47 60 c25 33 51 58 57 54 6 -3 38 -26 72 -50z m377 33 c16 -24 16 -27
-1 -45 -17 -19 -18 -19 -35 8 -13 19 -15 32 -8 45 13 25 24 23 44 -8z m319 -5
c17 -29 16 -59 -3 -59 -5 0 -18 14 -29 32 -15 24 -18 36 -10 45 15 19 22 16
42 -18z m-161 -68 c26 -43 47 -83 47 -88 0 -5 -20 -28 -44 -52 l-43 -42 -45
63 c-24 35 -48 69 -52 76 -5 8 9 33 36 67 24 30 45 54 48 54 3 0 26 -35 53
-78z m-748 -52 c94 -73 142 -116 137 -124 -19 -32 -208 -264 -214 -262 -21 6
-287 254 -283 264 11 30 191 242 202 238 7 -2 78 -55 158 -116z m1134 5 c29
-63 51 -117 49 -119 -1 -1 -21 -12 -44 -23 l-40 -20 -57 113 -56 113 37 25
c20 14 42 26 48 26 6 1 34 -51 63 -115z m-283 44 c14 -27 14 -32 1 -45 -13
-13 -17 -10 -37 21 -18 29 -20 39 -10 51 15 18 26 12 46 -27z m203 -223 c1
-10 -78 -60 -83 -53 -2 2 -27 43 -56 91 l-54 88 45 45 44 44 52 -102 c28 -57
52 -107 52 -113z m-689 120 l52 -65 -48 -57 -48 -56 -53 57 c-29 31 -53 61
-53 66 0 8 88 120 95 120 2 0 27 -29 55 -65z m-3602 -388 l242 -82 0 -532 0
-533 -826 0 -825 0 6 43 c3 23 37 355 75 737 38 382 72 716 76 741 l5 46 502
-170 c276 -93 611 -206 745 -250z m3861 352 l50 -72 -18 -26 c-32 -44 -71 -76
-79 -65 -4 6 -29 39 -56 73 l-49 63 49 49 c26 27 49 49 50 49 2 0 25 -32 53
-71z m256 -75 c25 -41 47 -79 48 -84 2 -8 -70 -70 -82 -70 -4 0 -30 33 -58 74
l-51 73 41 42 c23 22 45 41 49 41 3 0 27 -34 53 -76z m504 -55 c28 -67 51
-127 51 -134 0 -13 -73 -39 -78 -27 -1 4 -27 61 -56 127 l-54 120 36 17 c21 9
40 17 43 17 4 1 30 -54 58 -120z m-1075 -70 l126 -142 -23 -31 c-13 -17 -52
-70 -86 -119 -35 -48 -67 -89 -72 -92 -8 -6 -289 241 -289 253 0 8 210 272
215 272 2 0 60 -64 129 -141z m193 62 l53 -69 -45 -49 -45 -48 -55 60 c-30 33
-54 63 -52 67 4 13 81 108 87 108 3 -1 29 -32 57 -69z m755 -40 c26 -60 50
-115 53 -124 4 -10 -2 -17 -18 -21 -14 -3 -32 -9 -41 -12 -11 -4 -28 21 -70
105 -31 61 -56 113 -56 116 0 7 63 45 75 45 6 0 31 -49 57 -109z m-490 -24
c31 -45 84 -121 117 -168 l60 -86 -85 -101 -85 -101 -116 132 c-64 73 -127
144 -141 159 l-25 27 103 110 c56 61 105 111 109 111 3 0 31 -38 63 -83z m415
-151 c-2 -5 -19 -15 -38 -21 -39 -13 -32 -21 -107 117 l-42 76 43 26 42 25 52
-107 c29 -59 51 -111 50 -116z m-170 48 c51 -93 51 -95 30 -103 -61 -23 -60
-24 -114 54 -29 40 -53 77 -53 82 0 8 69 62 80 63 3 0 28 -43 57 -96z m1177
-531 c76 -335 140 -618 143 -630 l5 -23 -168 0 -169 0 -230 552 c-126 303
-238 570 -247 593 l-16 42 236 35 c130 19 253 36 273 37 l35 1 138 -607z m504
411 l22 -6 0 -529 0 -529 -166 2 -167 3 -138 610 c-76 336 -140 617 -142 626
-3 12 65 -7 282 -78 157 -51 296 -96 309 -99z m-984 -482 l243 -582 -166 0
-166 0 -307 509 -306 510 71 25 c226 81 382 132 385 127 1 -3 112 -268 246
-589z m-1114 383 c67 -77 129 -147 136 -155 11 -13 1 -29 -66 -110 -43 -52
-83 -94 -87 -92 -4 2 -72 60 -150 129 -127 113 -142 129 -130 145 81 117 163
227 168 225 4 -1 62 -65 129 -142z m675 -470 c158 -264 289 -483 292 -487 2
-5 -67 -8 -154 -8 l-158 1 -135 121 c-74 66 -217 195 -317 285 l-183 164 177
210 c97 115 179 206 183 202 4 -4 136 -224 295 -488z m-5954 -572 c0 -16 35
-370 78 -788 43 -418 77 -761 76 -763 -2 -2 -1477 -502 -1482 -502 -2 0 -3
468 -3 1040 l0 1040 665 0 665 0 1 -27z m843 -290 c-4 -175 -9 -320 -11 -323
-4 -5 -706 -128 -711 -124 -2 1 -19 154 -37 341 -19 186 -37 357 -40 381 l-6
42 406 0 405 0 -6 -317z m846 59 l0 -257 -406 -61 -407 -60 7 150 c3 82 6 225
6 318 l0 168 400 0 400 0 0 -258z m5710 -1917 l0 -2165 -1914 0 -1914 0 -5 33
c-4 17 -59 467 -123 998 l-116 967 43 40 c24 21 611 546 1303 1166 l1260 1126
733 0 733 0 0 -2165z m-5712 1364 l-3 -252 -353 -120 c-194 -66 -355 -118
-358 -115 -2 3 -24 143 -47 311 l-43 306 40 6 c23 4 199 30 391 60 193 29 356
54 363 54 10 1 12 -52 10 -250z m-848 117 c0 -3 9 -68 21 -146 11 -78 19 -144
17 -146 -2 -2 -75 -22 -162 -44 -88 -23 -164 -44 -171 -46 -11 -5 -21 76 -39
311 -1 17 15 22 149 46 155 28 185 32 185 25z m-366 -225 c9 -91 14 -167 12
-169 -7 -7 -318 -83 -322 -79 -4 3 -42 350 -40 354 1 2 330 60 333 59 1 -1 8
-75 17 -165z m430 -236 c9 -66 18 -130 21 -142 5 -20 -8 -26 -166 -78 -93 -31
-172 -55 -173 -54 -5 6 -48 301 -44 304 3 4 342 93 345 91 1 0 8 -55 17 -121z
m895 -31 l72 -57 -172 -89 c-94 -49 -177 -87 -183 -85 -13 5 -131 176 -125
181 8 7 304 104 320 105 8 1 48 -24 88 -55z m-1281 -106 c12 -84 19 -155 14
-159 -12 -11 -323 -112 -328 -106 -6 6 -34 257 -34 307 l0 36 143 36 c78 20
151 36 163 37 19 1 22 -10 42 -151z m892 -61 c34 -49 58 -92 54 -97 -8 -6
-206 -100 -291 -136 l-31 -14 -71 112 c-39 62 -67 116 -63 120 14 14 326 116
333 109 4 -3 35 -46 69 -94z m579 16 c39 -31 71 -59 71 -63 0 -7 -306 -205
-331 -215 -8 -3 -49 28 -99 73 l-84 79 144 75 c80 42 159 83 175 91 17 9 35
16 41 17 6 0 43 -25 83 -57z m-1020 -75 c8 -13 20 -32 28 -44 13 -20 10 -22
-55 -47 -37 -15 -72 -27 -77 -27 -6 0 -22 21 -37 48 l-27 47 62 22 c80 28 89
28 106 1z m1224 -87 c37 -30 67 -57 65 -61 -2 -5 -80 -67 -175 -139 l-171
-130 -77 85 c-43 46 -74 88 -71 92 28 27 343 219 351 213 5 -4 41 -31 78 -60z
m-1406 -4 c15 -26 24 -49 22 -51 -2 -2 -34 -16 -71 -30 l-68 -25 -24 42 c-38
65 -38 67 34 92 36 13 69 22 73 21 5 -1 20 -23 34 -49z m783 -50 c-3 -2 -36
-22 -75 -45 -77 -44 -82 -44 -118 17 l-18 31 73 34 73 34 35 -34 c18 -18 32
-35 30 -37z m-972 -19 l30 -53 -72 -28 c-67 -26 -72 -26 -84 -10 -21 27 -54
94 -49 99 7 7 112 43 129 43 9 1 28 -20 46 -51z m471 3 l30 -50 -54 -25 c-92
-42 -90 -42 -124 8 -17 24 -31 49 -31 54 0 8 113 59 137 61 6 1 25 -21 42 -48z
m301 -88 c0 -7 -31 -29 -70 -48 l-70 -35 -23 37 c-13 21 -27 44 -31 51 -5 8
15 23 65 47 l72 34 28 -37 c16 -20 29 -43 29 -49z m-965 15 l34 -57 -70 -26
c-39 -15 -72 -26 -73 -24 -12 14 -66 108 -66 116 0 9 118 53 134 49 4 -1 23
-27 41 -58z m469 -5 l36 -57 -28 -12 c-15 -6 -48 -21 -74 -32 l-47 -21 -31 53
c-16 30 -30 57 -30 62 0 5 31 21 68 35 37 15 68 27 69 28 1 0 17 -25 37 -56z
m768 30 c15 -15 28 -30 28 -34 0 -4 -35 -28 -77 -55 l-76 -48 -34 39 c-18 21
-32 39 -31 41 10 9 145 84 152 84 6 0 23 -12 38 -27z m742 -34 c42 -33 74 -65
71 -69 -3 -5 -75 -70 -160 -145 l-154 -136 -96 72 -95 71 107 82 c58 44 136
104 172 133 36 29 69 52 72 53 4 0 41 -27 83 -61z m-2168 -55 c20 -31 32 -60
27 -64 -4 -4 -38 -16 -75 -27 l-67 -20 -36 60 c-20 33 -34 61 -33 62 7 5 124
43 136 44 7 1 28 -24 48 -55z m942 -4 l31 -50 -69 -35 c-38 -19 -71 -35 -74
-35 -7 0 -68 102 -64 106 6 5 132 63 139 64 3 0 20 -23 37 -50z m-471 -19 c23
-42 29 -60 20 -64 -6 -3 -37 -17 -69 -31 l-56 -25 -37 61 c-20 34 -32 64 -28
68 9 9 114 49 128 49 6 1 25 -26 42 -58z m1060 7 l33 -32 -82 -54 -82 -55 -33
38 -33 38 73 48 c39 26 76 48 82 48 5 1 24 -13 42 -31z m-287 -68 c-11 -8 -47
-32 -80 -52 l-59 -38 -31 44 c-16 25 -30 48 -30 53 0 5 33 25 73 45 l72 36 38
-36 c37 -36 37 -37 17 -52z m-1442 24 c18 -31 32 -59 32 -63 0 -5 -33 -18 -72
-30 -70 -20 -74 -21 -86 -4 -25 33 -53 95 -47 101 5 6 120 49 135 51 3 1 20
-24 38 -55z m463 -2 c9 -15 26 -43 38 -63 l21 -36 -68 -30 -69 -30 -40 67 -41
68 62 25 c78 32 78 32 97 -1z m518 -86 c-7 -6 -128 -66 -134 -66 -7 0 -79 110
-74 113 2 2 35 17 74 34 l69 30 34 -54 c19 -30 33 -56 31 -57z m1689 -36 c94
-74 169 -140 167 -146 -4 -13 -390 -552 -408 -571 -9 -9 -80 18 -314 120 -166
73 -303 136 -305 140 -4 12 664 598 677 595 6 -2 88 -64 183 -138z m-2865 58
c14 -29 49 -94 76 -144 l51 -91 -183 -48 c-100 -27 -187 -50 -193 -52 -12 -4
-130 265 -120 275 9 9 306 110 326 111 9 1 27 -21 43 -51z m2024 10 l32 -31
-71 -54 c-39 -29 -73 -53 -75 -53 -3 0 -22 14 -43 32 l-38 32 76 53 c41 29 78
53 81 53 3 0 20 -14 38 -32z m-618 0 c8 -13 23 -37 33 -53 l18 -31 -69 -37
-68 -37 -37 55 -36 55 67 34 c38 19 70 35 73 36 3 0 12 -10 19 -22z m-914 -47
c21 -33 38 -63 39 -67 0 -5 -26 -16 -59 -26 -33 -10 -68 -21 -77 -24 -12 -4
-26 11 -53 57 -20 34 -33 64 -30 68 6 6 122 49 137 50 4 1 23 -26 43 -58z
m1234 15 l32 -33 -63 -45 c-35 -24 -69 -48 -76 -52 -9 -6 -27 5 -53 30 l-39
38 73 48 c39 26 77 48 83 48 5 0 25 -15 43 -34z m-765 -32 c21 -31 36 -57 34
-58 -11 -9 -123 -66 -128 -66 -8 0 -84 120 -79 124 9 6 125 56 130 56 3 0 23
-25 43 -56z m-665 -55 c18 -33 31 -62 30 -63 -8 -6 -133 -46 -145 -46 -7 0
-28 29 -46 64 l-34 63 60 21 c94 31 97 30 135 -39z m945 -5 c21 -31 36 -57 34
-59 -12 -10 -117 -65 -125 -65 -6 0 -27 25 -47 55 l-36 55 67 34 c38 19 68 35
69 36 1 0 18 -25 38 -56z m894 28 l33 -27 -70 -58 c-38 -31 -73 -57 -77 -57
-11 0 -74 50 -74 59 0 11 131 110 145 110 6 0 25 -12 43 -27z m-2427 -293 c70
-162 124 -295 120 -296 -8 -3 -963 -153 -973 -153 -4 0 -8 114 -8 254 l0 254
358 120 c196 66 361 119 367 118 5 -2 67 -135 136 -297z m1074 240 c21 -33 36
-62 34 -63 -2 -2 -32 -18 -66 -35 l-62 -31 -42 67 c-23 37 -38 68 -33 70 5 2
32 14 59 27 28 14 55 25 62 25 6 1 28 -26 48 -60z m1077 -29 c-27 -24 -132
-100 -136 -100 -3 0 -24 16 -46 36 l-40 36 77 54 77 54 38 -37 c21 -20 35 -40
30 -43z m-299 -15 c2 -10 -112 -94 -129 -95 -6 0 -28 21 -48 47 l-36 46 67 38
68 37 38 -31 c22 -18 40 -36 40 -42z m717 -16 c0 -3 -32 -34 -70 -69 -77 -68
-69 -67 -135 -15 -20 16 -19 17 25 53 25 20 58 49 75 63 l30 27 37 -27 c21
-14 38 -29 38 -32z m-1672 -20 l40 -67 -84 -22 c-46 -13 -86 -21 -88 -19 -16
21 -67 121 -63 125 5 6 151 53 153 51 1 -1 20 -32 42 -68z m442 31 c0 -4 -10
-12 -23 -17 -19 -9 -26 -8 -35 7 -9 15 -7 21 11 33 20 14 23 14 35 -1 6 -9 12
-19 12 -22z m-90 -46 c0 -22 -40 -28 -55 -7 -12 16 -11 19 8 30 24 12 47 1 47
-23z m990 1 c30 -31 32 -36 18 -47 -9 -7 -42 -33 -73 -57 l-56 -44 -40 39 -39
39 67 52 c38 28 73 52 79 52 5 1 25 -15 44 -34z m-560 -75 c0 -3 -21 -18 -48
-34 -26 -17 -56 -36 -68 -43 -19 -12 -23 -9 -59 42 -21 31 -35 58 -31 62 3 3
32 21 63 39 l58 33 42 -47 c24 -26 43 -49 43 -52z m-994 30 c18 -30 33 -58 34
-61 0 -4 -30 -14 -67 -23 -38 -9 -76 -19 -85 -22 -13 -4 -25 10 -48 56 -17 34
-30 63 -28 65 8 8 135 44 147 42 8 -1 29 -27 47 -57z m1284 -20 c0 -9 -121
-103 -134 -104 -6 -1 -28 18 -49 40 l-37 41 73 51 72 50 38 -36 c20 -20 37
-39 37 -42z m-580 34 c0 -15 -35 -28 -50 -19 -16 10 -12 33 7 44 20 11 43 -3
43 -25z m2162 -108 c175 -139 177 -140 183 -185 3 -26 16 -130 29 -234 20
-166 21 -187 7 -183 -9 3 -194 42 -411 87 -217 45 -397 84 -399 85 -5 4 403
573 410 571 3 -1 85 -65 181 -141z m-2370 66 c35 -53 37 -58 20 -70 -22 -18
-113 -64 -117 -60 -13 17 -75 120 -75 126 0 8 106 59 125 61 6 0 27 -25 47
-57z m-707 -33 c15 -33 25 -62 23 -63 -1 -2 -40 -12 -86 -23 l-83 -21 -30 60
c-17 33 -29 61 -27 63 5 5 142 43 159 44 11 1 26 -20 44 -60z m822 42 c10 -16
9 -22 -12 -35 -22 -14 -24 -14 -38 8 -15 22 -14 24 6 34 30 15 31 14 44 -7z
m1055 -33 l40 -31 -54 -49 c-96 -88 -93 -87 -138 -43 l-39 38 72 58 c40 32 74
58 76 59 2 0 21 -14 43 -32z m-913 3 c9 -15 6 -22 -14 -35 -23 -15 -25 -15
-36 6 -10 18 -8 24 7 35 24 17 31 17 43 -6z m-461 -22 c16 -25 16 -25 -24 -33
-26 -6 -32 -3 -42 18 -9 21 -8 25 6 29 35 9 48 6 60 -14z m-725 -45 c16 -31
26 -58 23 -61 -8 -8 -158 -44 -168 -41 -6 2 -20 29 -33 60 l-23 56 72 20 c39
11 78 21 86 21 10 1 27 -22 43 -55z m1798 25 c21 -17 39 -34 39 -38 0 -5 -33
-36 -74 -69 l-73 -61 -40 47 -40 47 70 52 c39 29 72 53 75 53 2 0 22 -14 43
-31z m-297 -25 c21 -25 36 -47 35 -49 -30 -28 -135 -102 -141 -99 -5 3 -24 28
-43 56 l-34 51 67 43 c37 23 69 43 72 43 3 1 23 -20 44 -45z m-884 17 c11 -22
8 -25 -31 -34 -21 -5 -28 -2 -37 18 -10 21 -8 24 11 28 41 8 46 7 57 -12z
m480 -2 c13 -23 13 -22 -16 -37 -16 -9 -22 -7 -33 10 -12 19 -11 23 5 35 24
18 31 17 44 -8z m-571 -66 c17 -31 31 -59 31 -63 0 -3 -35 -15 -77 -25 -43
-10 -83 -19 -88 -22 -6 -2 -25 25 -42 61 l-32 64 77 20 c42 11 82 20 89 21 6
1 25 -25 42 -56z m712 41 c11 -14 9 -19 -11 -34 -24 -18 -25 -18 -38 1 -12 18
-12 22 4 34 24 18 29 18 45 -1z m-464 -56 c-22 -14 -56 -8 -67 12 -9 17 -6 20
22 28 28 7 35 6 45 -12 9 -16 9 -23 0 -28z m262 -10 l40 -63 -67 -42 -67 -42
-42 67 c-23 37 -41 67 -40 68 10 8 124 73 129 74 4 0 25 -28 47 -62z m-377
-20 c-31 -12 -51 -8 -62 12 -9 17 -6 20 22 28 28 7 35 6 45 -12 9 -17 9 -22
-5 -28z m498 18 c0 -6 -9 -17 -21 -24 -18 -11 -23 -11 -35 5 -18 24 -18 28 9
40 23 11 47 1 47 -21z m-857 -32 c16 -31 26 -58 23 -61 -5 -6 -146 -43 -163
-43 -11 0 -67 109 -59 117 6 7 130 41 151 42 16 1 28 -13 48 -55z m1620 18
l37 -38 -70 -59 c-39 -33 -74 -61 -78 -63 -4 -1 -25 16 -47 38 l-39 40 39 33
c22 17 53 44 70 59 16 15 35 28 40 28 6 0 28 -17 48 -38z m-606 -24 c16 -24
33 -48 37 -55 4 -7 -18 -29 -58 -57 -35 -25 -66 -46 -68 -46 -7 0 -78 108 -78
117 0 10 110 81 126 82 6 1 24 -18 41 -41z m305 -12 l37 -42 -69 -57 c-39 -31
-72 -57 -75 -57 -8 0 -80 82 -80 91 0 10 127 108 140 107 6 0 27 -19 47 -42z
m-1547 -28 c14 -29 25 -58 25 -64 0 -6 -35 -19 -77 -29 -43 -10 -83 -20 -89
-22 -9 -3 -50 79 -57 114 -1 4 36 17 83 29 47 12 86 23 88 23 2 1 14 -23 27
-51z m758 28 c16 -24 15 -24 -20 -31 -35 -6 -48 1 -53 30 -1 8 23 20 51 24 4
1 14 -10 22 -23z m-115 -27 c16 -25 16 -24 -25 -32 -26 -5 -35 -2 -43 13 -13
25 -13 28 8 33 35 9 47 7 60 -14z m1350 -30 l53 -22 -43 -44 c-24 -25 -55 -53
-69 -63 -26 -19 -27 -19 -80 1 -29 11 -58 23 -63 27 -12 7 125 133 139 128 6
-2 34 -14 63 -27z m-1442 -39 c18 -30 33 -58 34 -61 0 -6 -152 -39 -180 -39
-17 0 -75 108 -65 119 10 9 137 39 159 38 12 -1 32 -23 52 -57z m522 -19 l41
-58 -69 -47 -70 -46 -14 23 c-51 81 -67 109 -64 112 8 8 124 75 129 75 3 0 25
-26 47 -59z m-260 28 c16 -25 16 -24 -25 -32 -26 -5 -35 -2 -48 16 -14 21 -14
22 7 29 40 11 53 8 66 -13z m844 -26 c21 -20 38 -41 38 -45 0 -8 -41 -47 -109
-104 l-34 -28 -39 43 c-21 25 -37 48 -35 54 3 9 128 115 137 116 2 1 21 -16
42 -36z m-1345 -36 l31 -63 -87 -17 c-48 -9 -93 -17 -99 -17 -10 0 -67 110
-60 115 3 1 163 41 178 44 3 1 20 -27 37 -62z m382 34 c8 -15 7 -20 -5 -25
-29 -11 -62 -6 -68 11 -13 33 56 47 73 14z m668 -28 l40 -46 -56 -46 c-31 -25
-63 -52 -72 -58 -13 -11 -22 -4 -57 47 l-42 59 67 46 c37 25 71 45 74 45 4 0
25 -21 46 -47z m799 12 l57 -25 -54 -58 c-29 -31 -54 -58 -55 -60 0 -1 -34 10
-74 24 l-73 27 61 59 c33 32 65 58 71 58 6 0 36 -11 67 -25z m-2087 -64 c11
-27 21 -54 21 -59 0 -5 -37 -14 -82 -21 -46 -7 -92 -15 -104 -17 -17 -5 -22 2
-32 47 -7 29 -10 54 -8 56 5 5 145 40 167 42 11 1 24 -17 38 -48z m819 -25
l40 -64 -102 -19 -101 -19 -32 56 c-18 30 -33 60 -33 66 0 9 119 40 166 43 16
1 32 -15 62 -63z m1533 -27 l137 -60 -47 -111 c-26 -60 -51 -110 -56 -110 -29
-1 -435 88 -433 94 2 4 54 64 117 133 78 86 120 124 130 120 8 -3 76 -33 152
-66z m-568 12 c14 -5 6 -17 -45 -67 l-63 -61 -77 24 -77 25 72 63 72 63 50
-20 c27 -11 58 -23 68 -27z m-1972 -241 c37 -151 67 -276 66 -277 -1 0 -257
-28 -569 -60 l-568 -59 0 258 c0 142 1 258 3 259 17 5 976 156 987 155 10 -1
33 -76 81 -276z m760 209 c16 -34 29 -62 27 -64 -3 -2 -181 -35 -192 -35 -3 0
-19 27 -36 60 -22 44 -27 62 -18 65 20 6 151 33 170 34 12 1 28 -19 49 -60z
m533 -4 c20 -30 36 -58 36 -63 0 -8 -123 -102 -133 -102 -6 0 -77 119 -77 128
1 7 121 92 131 92 3 0 23 -25 43 -55z m332 -54 c-3 -5 -37 -36 -74 -69 l-69
-61 -41 56 -41 56 72 59 72 59 43 -46 c24 -25 41 -49 38 -54z m-1116 9 l30
-59 -33 -6 c-78 -13 -163 -25 -178 -25 -11 0 -21 16 -30 48 -8 26 -14 51 -14
57 0 8 131 41 177 44 12 1 28 -19 48 -59z m1612 28 l66 -23 -53 -58 -52 -59
-74 23 c-41 12 -76 24 -78 26 -7 5 102 113 114 113 6 0 41 -10 77 -22z m-1869
-72 c10 -27 16 -50 15 -51 -6 -6 -221 -35 -225 -31 -2 2 -10 26 -17 54 l-14
50 87 15 c127 22 132 21 154 -37z m859 -28 c20 -34 35 -64 33 -66 -6 -6 -163
-32 -192 -32 -17 0 -29 13 -50 53 -15 28 -28 56 -28 62 0 9 140 42 185 44 8 0
32 -27 52 -61z m2048 -25 c228 -47 417 -88 419 -89 5 -4 60 -458 56 -463 -4
-3 -1106 157 -1112 162 -2 3 67 171 180 440 9 20 22 37 29 37 7 0 200 -39 428
-87z m-1122 -48 c9 -3 -14 -45 -69 -125 -62 -90 -88 -120 -104 -120 -20 0
-491 68 -507 73 -4 1 65 65 153 143 l161 141 177 -54 c97 -30 182 -56 189 -58z
m-1188 29 c18 -30 29 -58 26 -61 -5 -6 -172 -32 -207 -33 -11 0 -25 19 -39 55
-13 31 -21 57 -19 59 5 5 158 33 186 35 16 1 29 -12 53 -55z m550 14 c18 -24
37 -48 42 -54 5 -7 -18 -35 -66 -78 l-74 -66 -36 62 c-21 34 -38 65 -39 69 -2
7 122 107 134 108 3 1 21 -18 39 -41z m-783 -143 l49 -131 -274 -28 c-150 -15
-275 -26 -276 -24 -4 4 -65 252 -63 254 9 6 503 69 508 65 3 -3 28 -65 56
-136z m1908 -5 c37 -2 37 -18 -6 -121 -23 -57 -44 -106 -45 -107 -4 -6 -519
70 -528 78 -4 5 28 60 73 123 l81 115 207 -44 c115 -24 213 -44 218 -44z
m-1311 11 c20 -32 36 -63 36 -69 0 -5 -39 -12 -87 -16 -49 -4 -102 -9 -119
-12 -30 -6 -33 -3 -58 52 -14 31 -24 60 -20 63 3 3 49 13 102 22 53 9 100 17
103 18 3 0 23 -26 43 -58z m-260 -87 c6 -20 2 -21 -75 -28 -44 -4 -100 -9
-124 -12 l-43 -6 -21 57 c-12 32 -20 59 -19 60 2 1 55 8 118 16 l115 15 21
-41 c12 -22 24 -49 28 -61z m328 -154 c1 -66 2 -132 2 -147 l1 -28 -268 -20
-268 -20 -4 20 c-5 27 -25 258 -22 260 4 4 481 52 520 54 l37 1 2 -120z m1177
-45 c619 -90 1139 -168 1156 -173 l30 -8 51 -424 c29 -234 55 -451 58 -483 l7
-57 -1195 0 -1194 0 -6 113 c-4 61 -13 301 -21 532 -8 231 -17 475 -21 543 -3
67 -3 122 1 122 4 0 514 -74 1134 -165z m-1770 -31 c7 -75 11 -137 9 -139 -5
-5 -469 -45 -518 -45 l-37 0 -11 128 c-5 70 -8 129 -6 132 5 4 469 56 525 59
l26 1 12 -136z m-608 44 c0 -18 10 -148 23 -288 12 -140 22 -256 21 -257 0 -1
-228 -14 -506 -27 -277 -14 -546 -28 -597 -32 l-92 -6 0 261 c0 242 1 261 18
262 9 0 260 27 557 58 297 32 548 59 558 60 13 1 17 -7 18 -31z m1213 -334 c4
-80 6 -147 4 -149 -3 -3 -531 -32 -536 -30 -1 1 -5 66 -9 143 -6 135 -5 142
13 143 10 0 118 8 239 18 121 10 234 19 251 20 l31 1 7 -146z m-584 -51 l0
-133 -27 0 c-16 -1 -136 -7 -268 -14 -132 -8 -241 -13 -242 -12 -5 4 -24 258
-20 263 12 11 542 48 549 38 4 -5 8 -70 8 -142z m593 -225 c4 -46 9 -188 13
-315 l7 -233 -588 0 -588 0 7 157 c3 87 9 215 13 286 l6 127 41 1 c30 0 893
47 1062 58 20 1 22 -6 27 -81z m-1177 -35 c-3 -32 -8 -130 -11 -218 -3 -88 -8
-190 -11 -228 l-6 -67 -584 0 -584 0 0 255 0 255 68 1 c58 0 1102 54 1125 58
5 0 6 -25 3 -56z"/>
</g>
</svg>
