<?xml version="1.0" standalone="no"?>
<!DOCTYPE svg PUBLIC "-//W3C//DTD SVG 20010904//EN"
 "http://www.w3.org/TR/2001/REC-SVG-20010904/DTD/svg10.dtd">
<svg version="1.0" xmlns="http://www.w3.org/2000/svg"
 width="490.000000pt" height="490.000000pt" viewBox="0 0 490.000000 490.000000"
 preserveAspectRatio="xMidYMid meet">
<metadata>
Created by potrace 1.11, written by Peter Selinger 2001-2013
</metadata>
<g transform="translate(0.000000,490.000000) scale(0.100000,-0.100000)"
fill="#000000" stroke="none">
<path d="M427 4583 c-4 -32 -9 -128 -12 -213 -6 -185 -21 -457 -41 -750 -8
-118 -19 -282 -24 -365 -5 -82 -14 -193 -20 -245 -5 -52 -14 -147 -20 -210 -6
-63 -15 -151 -20 -195 -5 -44 -14 -125 -20 -180 -6 -55 -13 -120 -16 -145 -2
-25 -11 -117 -19 -205 -8 -88 -19 -198 -24 -245 -5 -47 -17 -148 -25 -225 -9
-77 -20 -187 -26 -245 -6 -58 -15 -143 -20 -190 -5 -47 -12 -121 -15 -165 -3
-44 -10 -111 -15 -150 -5 -38 -12 -106 -15 -151 l-6 -81 88 -6 c48 -4 133 -11
188 -17 177 -18 306 -30 490 -45 99 -8 223 -19 275 -25 98 -10 223 -23 403
-40 56 -5 149 -14 207 -20 58 -6 184 -17 280 -25 96 -8 222 -19 280 -25 58 -6
159 -15 225 -20 66 -6 174 -15 240 -20 66 -6 188 -15 270 -21 83 -5 213 -14
290 -19 122 -9 414 -22 1027 -46 l166 -7 6 49 c4 27 11 81 16 119 5 39 14 106
20 150 5 44 19 145 30 225 11 80 25 181 30 225 6 44 15 107 20 140 5 33 12 85
15 115 3 30 10 84 16 120 5 36 23 162 39 280 16 118 34 247 40 285 18 123 32
267 26 272 -5 5 -72 13 -271 32 -69 7 -437 11 -968 11 l-857 0 -2 1038 -3
1037 -60 6 c-33 4 -100 12 -150 18 -224 27 -267 33 -385 46 -69 8 -162 19
-207 25 -213 26 -254 31 -333 41 -47 5 -146 16 -220 24 -74 8 -173 19 -220 25
-47 6 -123 15 -170 20 -47 6 -123 14 -170 20 -122 15 -271 29 -301 30 -25 0
-27 -4 -32 -57z"/>
</g>
</svg>
