<?xml version="1.0" standalone="no"?>
<!DOCTYPE svg PUBLIC "-//W3C//DTD SVG 20010904//EN"
 "http://www.w3.org/TR/2001/REC-SVG-20010904/DTD/svg10.dtd">
<svg version="1.0" xmlns="http://www.w3.org/2000/svg"
 width="896.000000pt" height="896.000000pt" viewBox="0 0 896.000000 896.000000"
 preserveAspectRatio="xMidYMid meet">
<metadata>
Created by potrace 1.11, written by Peter Selinger 2001-2013
</metadata>
<g transform="translate(0.000000,896.000000) scale(0.100000,-0.100000)"
fill="#000000" stroke="none">
<path d="M7988 8771 c-143 -46 -258 -162 -307 -308 -39 -116 -24 -278 34 -379
l24 -41 -59 -41 c-32 -23 -65 -40 -72 -37 -7 3 -45 -23 -83 -58 -51 -46 -2559
-1813 -2641 -1860 -14 -8 -519 1332 -507 1343 4 4 97 25 206 46 109 21 203 41
209 45 6 4 -1 59 -21 159 -17 84 -33 155 -35 157 -2 3 -144 -24 -316 -58
l-312 -62 6 -36 c3 -20 9 -52 12 -71 l7 -34 -42 34 c-68 56 -69 56 -85 40 -13
-14 -3946 -4737 -3974 -4772 -11 -13 -4 -22 48 -64 l60 -49 -55 -55 -55 -55
1203 -1203 1202 -1202 49 49 c27 28 53 48 57 46 3 -3 10 -26 14 -51 10 -69 13
-74 54 -74 28 0 3915 771 3957 785 9 3 8 20 -2 67 -20 95 -22 91 56 118 39 13
70 29 70 34 0 5 -277 749 -616 1652 l-616 1643 1203 1719 1204 1719 30 -18
c85 -50 205 -73 310 -59 183 26 351 175 395 353 9 34 18 49 34 52 11 3 62 13
111 23 77 16 90 21 88 38 -1 10 -14 83 -29 162 -26 132 -30 143 -49 138 -11
-3 -61 -13 -111 -22 l-92 -17 -62 67 c-72 76 -124 110 -211 137 -80 25 -213
25 -291 0z m262 -168 c49 -20 111 -64 104 -74 -3 -5 -16 -9 -30 -9 -13 0 -24
-6 -24 -13 0 -8 14 -81 30 -162 17 -81 30 -150 30 -151 0 -2 14 -1 30 3 36 7
37 2 5 -52 -70 -121 -248 -174 -382 -116 l-52 23 22 34 c13 19 33 36 50 39 15
4 27 12 27 18 0 8 4 7 9 -2 7 -11 22 -3 70 39 34 29 61 58 61 64 0 6 -29 43
-64 81 l-64 70 -25 -23 c-28 -27 -32 -24 -42 36 -8 47 -8 47 -89 31 -31 -7
-59 -9 -62 -6 -15 14 66 113 120 147 78 48 192 58 276 23z m-390 -326 c12 -59
19 -113 17 -120 -6 -16 -36 54 -46 110 -7 38 -4 130 4 121 2 -2 13 -52 25
-111z m-4234 -2331 c-113 -505 -210 -924 -218 -931 -7 -7 -609 -430 -1338
-940 -729 -510 -1338 -937 -1355 -949 l-30 -21 25 32 c100 127 3116 3739 3118
3734 1 -3 -90 -420 -202 -925z m514 539 l0 -235 -56 0 c-48 0 -55 2 -50 18 2
9 26 115 52 235 27 119 49 217 51 217 2 0 3 -106 3 -235z m-80 -875 l80 0 0
-43 0 -43 -157 -111 c-87 -61 -159 -110 -160 -109 -2 2 32 159 75 351 l77 349
3 -197 2 -197 80 0z m477 -2712 l103 -102 55 54 55 55 217 -218 218 -217 -55
-55 -55 -55 225 -225 c124 -124 229 -225 235 -225 5 0 32 22 60 50 l50 50 218
-218 217 -217 -55 -55 -55 -55 117 -117 c79 -79 112 -119 102 -122 -22 -8
-3422 -686 -3425 -683 -4 4 23 114 32 129 24 41 1628 2328 1633 2328 3 0 52
-46 108 -102z"/>
<path d="M7205 8297 c-165 -33 -301 -61 -303 -63 -2 -1 11 -75 29 -163 27
-135 35 -161 48 -157 9 3 147 31 306 62 160 31 294 61 299 65 5 5 -2 65 -18
146 -33 169 -34 173 -49 172 -7 -1 -147 -28 -312 -62z"/>
<path d="M6501 8156 c-30 -6 -56 -17 -59 -25 -5 -15 47 -292 58 -304 6 -7 148
18 158 28 4 4 -41 253 -54 298 -6 19 -24 20 -103 3z"/>
<path d="M5805 8017 c-165 -33 -301 -61 -302 -61 -2 -1 56 -296 62 -312 2 -8
104 9 314 51 172 34 313 64 315 66 2 2 -10 75 -27 162 -24 122 -35 157 -47
156 -8 -1 -150 -28 -315 -62z"/>
<path d="M5101 7876 c-30 -6 -56 -16 -58 -21 -3 -10 54 -305 60 -312 9 -8 168
31 164 41 -2 6 -17 77 -33 159 -32 167 -22 157 -133 133z"/>
</g>
</svg>
